<svg width="360" height="177" fill="none" xmlns="http://www.w3.org/2000/svg"><path d="M28 11L6.37 30.227A16 16 0 001 42.184V167a8 8 0 008 8v0M332 11l21.772 19.825A16 16 0 01359 42.655v125.49a7.855 7.855 0 01-7.855 7.855v0" stroke="#71637F"/><circle cx="30.5" cy="8.5" r="1.5" fill="#71637F"/><path fill="#71637F" d="M30 3h1v11h-1z"/><path fill="#71637F" d="M25 9V8h11v1z"/><circle cx="328.5" cy="8.5" r="1.5" fill="#71637F"/><path fill="#71637F" d="M328 3h1v11h-1z"/><path fill="#71637F" d="M323 9V8h11v1z"/></svg>