<?xml version="1.0" encoding="UTF-8"?>
<svg id="Layer_2" data-name="Layer 2" xmlns="http://www.w3.org/2000/svg" viewBox="0 0 1376 580">
  <defs>
    <style>
      .cls-1 {
        fill: #060606;
        stroke: #71637f;
      }
    </style>
  </defs>
  <g id="Layer_1-2" data-name="Layer 1">
    <path class="cls-1" d="m1375.5,32v516c0,17.4-14.1,31.5-31.5,31.5H32c-17.4,0-31.5-14.1-31.5-31.5V21.21C.5,9.77,9.77.5,21.2.5c6.63,0,12.85,3.17,16.75,8.53l16.06,22.09c6.12,8.41,15.89,13.38,26.28,13.38h142.42c10.39,0,20.16-4.97,26.28-13.38l13-17.88c10.05-13.81,29.38-16.87,43.19-6.83,2.62,1.91,4.92,4.21,6.83,6.83l13,17.88c6.12,8.41,15.89,13.38,26.29,13.38h142.41c10.39,0,20.16-4.97,26.28-13.38l13-17.88c6.83-9.38,17.93-13.8,28.68-12.53,5.08.61,10.08,2.48,14.51,5.7,2.62,1.91,4.92,4.21,6.83,6.83l13,17.88c6.12,8.41,15.89,13.38,26.28,13.38h142.41c10.4,0,20.17-4.97,26.29-13.38l12.83-17.64c5.93-8.16,15.4-12.98,25.47-12.98h1.15c6.3,0,12.66,1.92,18.15,5.91,2.62,1.91,4.92,4.21,6.82,6.83l13.01,17.88c6.12,8.41,15.89,13.38,26.28,13.38h142.41c10.4,0,20.17-4.97,26.29-13.38l13-17.88c6.06-8.32,15.48-12.74,25.04-12.74h242.56c5.17,0,10.06,1.25,14.36,3.46,10.18,5.22,17.14,15.82,17.14,28.04Z"/>
  </g>
</svg>