<?xml version="1.0" encoding="UTF-8"?>
<svg id="Layer_2" data-name="Layer 2" xmlns="http://www.w3.org/2000/svg" viewBox="0 0 1271.4 668">
  <defs>
    <style>
      .cls-1 {
        fill: #080808;
        stroke: #726480;
      }
    </style>
  </defs>
  <g id="Layer_1-2" data-name="Layer 1">
    <g>
      <path class="cls-1" d="m711.89,44.49c-10.13-.22-19.59-5.15-25.56-13.37l-12.85-17.65c-5.74-7.9-14.81-12.67-24.53-12.96,9.82.21,19,5,24.78,12.96l12.85,17.65c5.93,8.15,15.28,13.07,25.31,13.37Z"/>
      <path class="cls-1" d="m1270.9,24.24v611.76c0,17.4-14.11,31.5-31.5,31.5H32c-17.4,0-31.5-14.1-31.5-31.5V21.22C.5,9.78,9.77.5,21.21.5c6.63,0,12.86,3.17,16.76,8.53l16.07,22.09c6.12,8.41,15.89,13.38,26.28,13.38h172.51c10.4,0,20.17-4.97,26.28-13.38l12.85-17.65c5.93-8.15,15.39-12.97,25.47-12.97h19.44c10.07,0,19.54,4.82,25.47,12.97l12.84,17.65c6.12,8.41,15.89,13.38,26.28,13.38h162.77c10.4,0,20.16-4.97,26.28-13.38l12.85-17.65c5.93-8.15,15.39-12.97,25.47-12.97h19.43c.23,0,.46,0,.69.01,9.72.29,18.79,5.06,24.53,12.96l12.85,17.65c5.97,8.22,15.43,13.15,25.56,13.37.32.01.65.01.97.01h162.26c10.39,0,20.16-4.97,26.27-13.38l15.18-20.85c4.46-6.14,11.6-9.77,19.19-9.77,2.29,0,4.5.32,6.59.94,2.47-.62,5.02-.94,7.62-.94h9.44c10.07,0,19.54,4.82,25.47,12.97l12.84,17.65c6.12,8.41,15.89,13.38,26.28,13.38h162.51c10.4,0,20.17-4.97,26.28-13.38l15.17-20.85c4.47-6.14,11.61-9.77,19.2-9.77,13.11,0,23.74,10.63,23.74,23.74Z"/>
    </g>
  </g>
</svg>