<svg width="960" height="668" fill="none" xmlns="http://www.w3.org/2000/svg"><path d="M959.5 24.238V636c0 17.397-14.103 31.5-31.5 31.5H32C14.603 667.5.5 653.397.5 636V21.216C.5 9.775 9.775.5 21.216.5c6.626 0 12.852 3.17 16.751 8.527l16.077 22.095A32.5 32.5 0 0080.324 44.5h172.51a32.503 32.503 0 0026.28-13.378l12.847-17.656A31.5 31.5 0 01317.431.5h19.437a31.5 31.5 0 0125.47 12.966l12.848 17.656A32.5 32.5 0 00401.465 44.5h172.511a32.5 32.5 0 0026.279-13.378l12.847-17.656A31.5 31.5 0 01638.573.5h9.436a31.501 31.501 0 0125.471 12.966l12.847 17.656A32.5 32.5 0 00712.606 44.5h162.511a32.5 32.5 0 0026.279-13.378l15.172-20.85A23.74 23.74 0 01935.762.5c13.11 0 23.738 10.628 23.738 23.738z" fill="#060606" stroke="#71637F"/></svg>