<svg width="390" height="642" fill="none" xmlns="http://www.w3.org/2000/svg"><g clip-path="url(#clip0_200_1149)"><path d="M195 145.055c68.611 0 126.019-47.967 140.52-112.196C339.375 15.78 353.178 1.5 370.555 1.5H389.5v1106.93H.5V1.5h18.945c17.377 0 31.18 14.28 35.035 31.359C68.98 97.088 126.39 145.055 195 145.055z" fill="#060606" stroke="url(#paint0_linear_200_1149)"/><path d="M390 1h-19.445c-17.673 0-31.631 14.51-35.523 31.749C320.582 96.755 263.373 144.555 195 144.555S69.418 96.755 54.968 32.749C51.076 15.509 37.118 1 19.445 1H0" stroke="url(#paint1_linear_200_1149)"/></g><defs><linearGradient id="paint0_linear_200_1149" x1="-1347.64" y1="60.05" x2="-520.763" y2="60.05" gradientUnits="userSpaceOnUse"><stop stop-color="#fff" stop-opacity="0"/><stop offset=".495" stop-color="#fff" stop-opacity=".5"/><stop offset="1" stop-color="#fff" stop-opacity="0"/></linearGradient><linearGradient id="paint1_linear_200_1149" x1="0" y1="20" x2="390" y2="13.5" gradientUnits="userSpaceOnUse"><stop stop-color="#fff" stop-opacity="0"/><stop offset=".495" stop-color="#fff" stop-opacity=".5"/><stop offset="1" stop-color="#fff" stop-opacity="0"/></linearGradient><clipPath id="clip0_200_1149"><path fill="#fff" d="M0 0h390v642H0z"/></clipPath></defs></svg>