<svg width="1024" height="538" fill="none" xmlns="http://www.w3.org/2000/svg"><g clip-path="url(#clip0_183_1184)"><path d="M84.288 400h-6.656v-44.352h25.664l4.416 4.416v18.496l-6.592 6.592H84.288V400zm0-20.736H98.24l2.88-2.88v-14.72H84.288v17.6zM124.226 400h-6.656v-44.352h25.216l4.48 4.416v16.832l-4.224 4.224 4.416 4.48V400h-6.592v-12.992L137.794 384h-13.568v16zm16.448-24.512V361.28h-16.448v17.088h13.504l2.944-2.88zM184.511 400H161.47l-4.479-4.48v-35.456l4.479-4.416h23.041l4.544 4.416v35.456l-4.544 4.48zm-20.864-38.336v32.256h18.752v-32.256h-18.752zm31.633 0v-6.016h31.488v6.016h-12.416V400h-6.656v-38.336H195.28zM260.511 400H237.47l-4.479-4.48v-35.456l4.479-4.416h23.041l4.544 4.416v35.456l-4.544 4.48zm-20.864-38.336v32.256h18.752v-32.256h-18.752zM301.552 400h-22.144l-4.48-4.48v-35.456l4.48-4.416h22.144l4.416 4.416v10.048h-6.592v-8.448h-17.792v32.256h17.792v-8.384h6.592v9.984l-4.416 4.48zm40.396 0h-23.04l-4.48-4.48v-35.456l4.48-4.416h23.04l4.544 4.416v35.456l-4.544 4.48zm-20.864-38.336v32.256h18.752v-32.256h-18.752zM381.838 400H357.07v-44.352h6.656v38.272h18.112V400zM38.096 336h-6.464v-44.352h6.464v5.568l21.696 24.448c-.064-2.048-.256-4.928-.256-6.912v-23.104h6.528V336h-6.528v-5.696L37.84 305.856c.128 2.048.256 4.928.256 6.976V336zm66.552 0H77.32v-44.352h27.008v6.016H83.975v13.376h16.833v5.376H83.975v13.504h20.673V336zm34.988 0h-23.041l-4.479-4.48v-35.456l4.479-4.416h23.041l4.544 4.416v35.456l-4.544 4.48zm-20.864-38.336v32.256h18.752v-32.256h-18.752zM161.221 336h-6.464v-44.352h6.464v5.568l21.696 24.448c-.064-2.048-.256-4.928-.256-6.912v-23.104h6.528V336h-6.528v-5.696l-21.696-24.448c.128 2.048.256 4.928.256 6.976V336z" fill="#F2F2F2"/><path d="M597.976 354.252c-.9 0-1.692-.156-2.376-.468a3.646 3.646 0 01-1.584-1.458c-.384-.648-.576-1.464-.576-2.448V341.4h1.152v8.478c0 1.128.294 1.968.882 2.52.6.54 1.434.81 2.502.81 1.068 0 1.896-.27 2.484-.81.6-.552.9-1.392.9-2.52V341.4h1.152v8.478c0 .984-.192 1.8-.576 2.448a3.52 3.52 0 01-1.584 1.458c-.684.312-1.476.468-2.376.468zm7.561-.252v-8.748h1.044v1.62h.216c.216-.468.57-.882 1.062-1.242.492-.372 1.206-.558 2.142-.558.636 0 1.218.132 1.746.396s.948.666 1.26 1.206c.324.528.486 1.194.486 1.998V354h-1.08v-5.256c0-.96-.24-1.65-.72-2.07-.48-.42-1.122-.63-1.926-.63-.9 0-1.65.3-2.25.9-.6.588-.9 1.482-.9 2.682V354h-1.08zm11.022 0v-8.748h1.08V354h-1.08zm.54-10.26a.905.905 0 01-.666-.27.905.905 0 01-.27-.666c0-.276.09-.498.27-.666.18-.18.402-.27.666-.27.276 0 .498.09.666.27.18.168.27.39.27.666 0 .264-.09.486-.27.666-.168.18-.39.27-.666.27zm6.09 10.26l-3.276-8.748h1.152l2.88 7.92h.216l2.88-7.92h1.152L624.917 354h-1.728zm10.884.252c-.9 0-1.686-.186-2.358-.558a4.058 4.058 0 01-1.548-1.602c-.372-.684-.558-1.47-.558-2.358v-.216c0-.9.186-1.686.558-2.358a3.97 3.97 0 011.53-1.584c.66-.384 1.41-.576 2.25-.576.816 0 1.536.174 2.16.522a3.613 3.613 0 011.494 1.476c.36.636.54 1.398.54 2.286v.576h-7.452c.036 1.092.366 1.938.99 2.538.636.588 1.434.882 2.394.882.816 0 1.446-.186 1.89-.558a3.659 3.659 0 001.044-1.368l.972.432c-.18.396-.432.786-.756 1.17-.312.372-.72.684-1.224.936-.504.24-1.146.36-1.926.36zm-3.366-5.328h6.336c-.048-.948-.354-1.674-.918-2.178-.564-.516-1.29-.774-2.178-.774-.876 0-1.602.258-2.178.774-.576.504-.93 1.23-1.062 2.178zM640.799 354v-8.748h1.044v1.098h.216c.168-.396.414-.684.738-.864.336-.18.798-.27 1.386-.27h1.026v1.008h-1.152c-.66 0-1.188.186-1.584.558-.396.372-.594.954-.594 1.746V354h-1.08zm9.96.252c-1.056 0-1.962-.252-2.718-.756-.744-.504-1.2-1.338-1.368-2.502l1.062-.198c.096.636.288 1.14.576 1.512.3.36.66.618 1.08.774.432.156.888.234 1.368.234.72 0 1.296-.144 1.728-.432.444-.3.666-.708.666-1.224 0-.528-.21-.894-.63-1.098-.408-.204-.954-.366-1.638-.486l-.828-.144a6.61 6.61 0 01-1.494-.432 2.814 2.814 0 01-1.062-.81c-.252-.336-.378-.756-.378-1.26 0-.756.294-1.35.882-1.782.6-.432 1.392-.648 2.376-.648.996 0 1.794.228 2.394.684.612.444.996 1.092 1.152 1.944l-1.008.216c-.12-.696-.408-1.188-.864-1.476-.444-.288-1.002-.432-1.674-.432-.66 0-1.188.126-1.584.378-.396.252-.594.624-.594 1.116 0 .48.18.834.54 1.062.36.216.852.378 1.476.486l.828.144c.6.096 1.14.24 1.62.432.48.18.858.438 1.134.774.288.336.432.78.432 1.332 0 .828-.312 1.47-.936 1.926-.624.444-1.47.666-2.538.666zm8.648 0c-.612 0-1.17-.102-1.674-.306a2.749 2.749 0 01-1.17-.936c-.288-.408-.432-.9-.432-1.476 0-.588.144-1.074.432-1.458a2.608 2.608 0 011.17-.864 4.471 4.471 0 011.638-.288h3.204v-.702c0-.708-.204-1.26-.612-1.656-.408-.396-1.002-.594-1.782-.594-.768 0-1.38.192-1.836.576-.444.372-.744.876-.9 1.512l-1.044-.306a4.05 4.05 0 01.684-1.386c.312-.42.726-.75 1.242-.99.516-.252 1.134-.378 1.854-.378 1.104 0 1.956.288 2.556.864.612.576.918 1.38.918 2.412v4.248c0 .36.168.54.504.54h.846V354h-1.152c-.372 0-.666-.108-.882-.324-.216-.228-.324-.534-.324-.918v-.126h-.18c-.156.264-.36.522-.612.774-.24.252-.558.456-.954.612-.396.156-.894.234-1.494.234zm.072-.972c.924 0 1.668-.276 2.232-.828.576-.564.864-1.356.864-2.376v-.216h-3.186c-.624 0-1.146.138-1.566.414-.408.264-.612.678-.612 1.242s.21 1.002.63 1.314c.432.3.978.45 1.638.45zm7.582.72v-12.6h1.08V354h-1.08zm8.858 0v-12.6h7.614v1.044h-6.462v4.716h5.958v1.044h-5.958v4.752h6.534V354h-7.686zm10.213 0v-12.6h4.932c.78 0 1.464.132 2.052.396.6.264 1.068.648 1.404 1.152.348.492.522 1.092.522 1.8v.18c0 .852-.204 1.524-.612 2.016-.408.48-.888.798-1.44.954v.216c.42.012.774.144 1.062.396.288.252.432.654.432 1.206V354h-1.152v-4.158c0-.384-.108-.678-.324-.882-.204-.204-.516-.306-.936-.306h-4.788V354h-1.152zm1.152-6.39h3.672c.936 0 1.656-.216 2.16-.648.516-.444.774-1.074.774-1.89v-.09c0-.816-.252-1.44-.756-1.872-.492-.444-1.218-.666-2.178-.666h-3.672v5.166zm14.667 6.642c-1.476 0-2.658-.432-3.546-1.296-.876-.876-1.314-2.154-1.314-3.834v-2.844c0-1.68.438-2.952 1.314-3.816.888-.876 2.07-1.314 3.546-1.314 1.464 0 2.58.414 3.348 1.242.78.816 1.17 1.932 1.17 3.348v.09h-1.152v-.126c0-1.032-.276-1.872-.828-2.52-.54-.66-1.386-.99-2.538-.99-1.164 0-2.076.354-2.736 1.062-.648.708-.972 1.704-.972 2.988v2.916c0 1.284.324 2.28.972 2.988.66.708 1.572 1.062 2.736 1.062 1.152 0 1.998-.324 2.538-.972.552-.66.828-1.506.828-2.538v-.27h1.152v.234c0 1.416-.39 2.538-1.17 3.366-.768.816-1.884 1.224-3.348 1.224zm6.564-.252v-1.242c0-.9.162-1.608.486-2.124a3.507 3.507 0 011.35-1.26 11.61 11.61 0 012.07-.828l.9-.288a7.7 7.7 0 001.548-.648c.456-.264.81-.6 1.062-1.008.252-.408.378-.924.378-1.548v-.072c0-.876-.306-1.566-.918-2.07-.6-.504-1.368-.756-2.304-.756-.996 0-1.812.27-2.448.81-.636.528-.954 1.338-.954 2.43v.234h-1.08v-.234c0-.912.192-1.68.576-2.304a3.677 3.677 0 011.584-1.44c.684-.336 1.458-.504 2.322-.504.864 0 1.62.162 2.268.486.66.312 1.17.756 1.53 1.332.36.564.54 1.224.54 1.98v.162c0 .816-.162 1.488-.486 2.016-.312.516-.756.942-1.332 1.278-.576.324-1.254.612-2.034.864l-.9.27c-.648.204-1.2.42-1.656.648-.444.216-.786.51-1.026.882-.24.36-.36.864-.36 1.512v.414h7.686V354h-8.802zm15.614.252c-1.416 0-2.538-.426-3.366-1.278-.816-.864-1.224-2.142-1.224-3.834v-2.88c0-1.692.408-2.964 1.224-3.816.828-.864 1.95-1.296 3.366-1.296 1.416 0 2.532.432 3.348 1.296.828.852 1.242 2.124 1.242 3.816v2.88c0 1.692-.414 2.97-1.242 3.834-.816.852-1.932 1.278-3.348 1.278zm0-1.008c1.152 0 2.016-.354 2.592-1.062.588-.72.882-1.71.882-2.97v-3.024c0-1.26-.294-2.244-.882-2.952-.576-.72-1.44-1.08-2.592-1.08-1.152 0-2.022.36-2.61 1.08-.576.708-.864 1.692-.864 2.952v3.024c0 1.26.288 2.25.864 2.97.588.708 1.458 1.062 2.61 1.062zm23.544.756v-12.6h1.152v5.76h6.408v-5.76h1.152V354h-1.152v-5.796h-6.408V354h-1.152zm15.881.252c-.9 0-1.686-.186-2.358-.558a4.058 4.058 0 01-1.548-1.602c-.372-.684-.558-1.47-.558-2.358v-.216c0-.9.186-1.686.558-2.358a3.97 3.97 0 011.53-1.584c.66-.384 1.41-.576 2.25-.576.816 0 1.536.174 2.16.522a3.613 3.613 0 011.494 1.476c.36.636.54 1.398.54 2.286v.576h-7.452c.036 1.092.366 1.938.99 2.538.636.588 1.434.882 2.394.882.816 0 1.446-.186 1.89-.558a3.659 3.659 0 001.044-1.368l.972.432c-.18.396-.432.786-.756 1.17-.312.372-.72.684-1.224.936-.504.24-1.146.36-1.926.36zm-3.366-5.328h6.336c-.048-.948-.354-1.674-.918-2.178-.564-.516-1.29-.774-2.178-.774-.876 0-1.602.258-2.178.774-.576.504-.93 1.23-1.062 2.178zm13.871 5.328c-.78 0-1.488-.18-2.124-.54a4.17 4.17 0 01-1.53-1.566c-.372-.684-.558-1.488-.558-2.412v-.216c0-.924.186-1.722.558-2.394.372-.684.876-1.206 1.512-1.566a4.226 4.226 0 012.142-.558c.648 0 1.194.09 1.638.27.444.168.804.39 1.08.666.288.264.51.546.666.846h.216V341.4h1.08V354h-1.044v-1.602h-.216c-.252.48-.648.912-1.188 1.296-.528.372-1.272.558-2.232.558zm.252-.972c.996 0 1.8-.318 2.412-.954.624-.636.936-1.512.936-2.628v-.144c0-1.116-.312-1.992-.936-2.628-.612-.636-1.416-.954-2.412-.954-.984 0-1.788.318-2.412.954-.624.636-.936 1.512-.936 2.628v.144c0 1.116.312 1.992.936 2.628.624.636 1.428.954 2.412.954zm7.173-3.618v-.216c0-.924.186-1.716.558-2.376a4.07 4.07 0 011.53-1.53 4.236 4.236 0 012.124-.54c.96 0 1.704.192 2.232.576.54.372.936.798 1.188 1.278h.216v-1.602h1.008v10.98c0 .432-.114.768-.342 1.008-.228.24-.576.36-1.044.36h-5.976v-.972h5.76c.372 0 .558-.18.558-.54v-3.762h-.216a3.49 3.49 0 01-.666.846c-.276.276-.636.504-1.08.684-.444.168-.99.252-1.638.252-.78 0-1.494-.18-2.142-.54a3.943 3.943 0 01-1.512-1.53c-.372-.672-.558-1.464-.558-2.376zm4.464 3.474c.996 0 1.8-.312 2.412-.936.624-.624.936-1.482.936-2.574v-.144c0-1.104-.312-1.962-.936-2.574-.612-.624-1.416-.936-2.412-.936-.984 0-1.788.312-2.412.936-.624.612-.936 1.47-.936 2.574v.144c0 1.092.312 1.95.936 2.574.624.624 1.428.936 2.412.936zm7.552.864v-8.748h1.08V354h-1.08zm.54-10.26a.905.905 0 01-.666-.27.905.905 0 01-.27-.666c0-.276.09-.498.27-.666.18-.18.402-.27.666-.27.276 0 .498.09.666.27.18.168.27.39.27.666 0 .264-.09.486-.27.666-.168.18-.39.27-.666.27zm3.714 10.26v-8.748h1.044v1.62h.216c.216-.468.57-.882 1.062-1.242.492-.372 1.206-.558 2.142-.558.636 0 1.218.132 1.746.396s.948.666 1.26 1.206c.324.528.486 1.194.486 1.998V354h-1.08v-5.256c0-.96-.24-1.65-.72-2.07-.48-.42-1.122-.63-1.926-.63-.9 0-1.65.3-2.25.9-.6.588-.9 1.482-.9 2.682V354h-1.08zm10.589-4.338v-.216c0-.924.186-1.716.558-2.376a4.07 4.07 0 011.53-1.53 4.236 4.236 0 012.124-.54c.96 0 1.704.192 2.232.576.54.372.936.798 1.188 1.278h.216v-1.602h1.008v10.98c0 .432-.114.768-.342 1.008-.228.24-.576.36-1.044.36h-5.976v-.972h5.76c.372 0 .558-.18.558-.54v-3.762h-.216a3.49 3.49 0 01-.666.846c-.276.276-.636.504-1.08.684-.444.168-.99.252-1.638.252-.78 0-1.494-.18-2.142-.54a3.943 3.943 0 01-1.512-1.53c-.372-.672-.558-1.464-.558-2.376zm4.464 3.474c.996 0 1.8-.312 2.412-.936.624-.624.936-1.482.936-2.574v-.144c0-1.104-.312-1.962-.936-2.574-.612-.624-1.416-.936-2.412-.936-.984 0-1.788.312-2.412.936-.624.612-.936 1.47-.936 2.574v.144c0 1.092.312 1.95.936 2.574.624.624 1.428.936 2.412.936zm26.494 1.116c-.612 0-1.17-.102-1.674-.306a2.749 2.749 0 01-1.17-.936c-.288-.408-.432-.9-.432-1.476 0-.588.144-1.074.432-1.458a2.608 2.608 0 011.17-.864 4.471 4.471 0 011.638-.288h3.204v-.702c0-.708-.204-1.26-.612-1.656-.408-.396-1.002-.594-1.782-.594-.768 0-1.38.192-1.836.576-.444.372-.744.876-.9 1.512l-1.044-.306a4.05 4.05 0 01.684-1.386c.312-.42.726-.75 1.242-.99.516-.252 1.134-.378 1.854-.378 1.104 0 1.956.288 2.556.864.612.576.918 1.38.918 2.412v4.248c0 .36.168.54.504.54h.846V354h-1.152c-.372 0-.666-.108-.882-.324-.216-.228-.324-.534-.324-.918v-.126h-.18c-.156.264-.36.522-.612.774-.24.252-.558.456-.954.612-.396.156-.894.234-1.494.234zm.072-.972c.924 0 1.668-.276 2.232-.828.576-.564.864-1.356.864-2.376v-.216h-3.186c-.624 0-1.146.138-1.566.414-.408.264-.612.678-.612 1.242s.21 1.002.63 1.314c.432.3.978.45 1.638.45zm7.582.72v-8.748h1.044v1.62h.216c.216-.468.57-.882 1.062-1.242.492-.372 1.206-.558 2.142-.558.636 0 1.218.132 1.746.396s.948.666 1.26 1.206c.324.528.486 1.194.486 1.998V354h-1.08v-5.256c0-.96-.24-1.65-.72-2.07-.48-.42-1.122-.63-1.926-.63-.9 0-1.65.3-2.25.9-.6.588-.9 1.482-.9 2.682V354h-1.08zm14.802.252c-.78 0-1.488-.18-2.124-.54a4.17 4.17 0 01-1.53-1.566c-.372-.684-.558-1.488-.558-2.412v-.216c0-.924.186-1.722.558-2.394.372-.684.876-1.206 1.512-1.566a4.226 4.226 0 012.142-.558c.648 0 1.194.09 1.638.27.444.168.804.39 1.08.666.288.264.51.546.666.846h.216V341.4h1.08V354h-1.044v-1.602h-.216c-.252.48-.648.912-1.188 1.296-.528.372-1.272.558-2.232.558zm.252-.972c.996 0 1.8-.318 2.412-.954.624-.636.936-1.512.936-2.628v-.144c0-1.116-.312-1.992-.936-2.628-.612-.636-1.416-.954-2.412-.954-.984 0-1.788.318-2.412.954-.624.636-.936 1.512-.936 2.628v.144c0 1.116.312 1.992.936 2.628.624.636 1.428.954 2.412.954zm23.828.72v-12.6h1.152v11.556h6.624V354h-7.776zm13.824.252c-.9 0-1.686-.186-2.358-.558a4.058 4.058 0 01-1.548-1.602c-.372-.684-.558-1.47-.558-2.358v-.216c0-.9.186-1.686.558-2.358a3.97 3.97 0 011.53-1.584c.66-.384 1.41-.576 2.25-.576.816 0 1.536.174 2.16.522a3.613 3.613 0 011.494 1.476c.36.636.54 1.398.54 2.286v.576h-7.452c.036 1.092.366 1.938.99 2.538.636.588 1.434.882 2.394.882.816 0 1.446-.186 1.89-.558a3.659 3.659 0 001.044-1.368l.972.432c-.18.396-.432.786-.756 1.17-.312.372-.72.684-1.224.936-.504.24-1.146.36-1.926.36zm-3.366-5.328h6.336c-.048-.948-.354-1.674-.918-2.178-.564-.516-1.29-.774-2.178-.774-.876 0-1.602.258-2.178.774-.576.504-.93 1.23-1.062 2.178zM906.387 354v-8.748h1.044v1.62h.216c.216-.468.57-.882 1.062-1.242.492-.372 1.206-.558 2.142-.558.636 0 1.218.132 1.746.396s.948.666 1.26 1.206c.324.528.486 1.194.486 1.998V354h-1.08v-5.256c0-.96-.24-1.65-.72-2.07-.48-.42-1.122-.63-1.926-.63-.9 0-1.65.3-2.25.9-.6.588-.9 1.482-.9 2.682V354h-1.08zm14.801.252c-.78 0-1.488-.18-2.124-.54a4.17 4.17 0 01-1.53-1.566c-.372-.684-.558-1.488-.558-2.412v-.216c0-.924.186-1.722.558-2.394.372-.684.876-1.206 1.512-1.566a4.226 4.226 0 012.142-.558c.648 0 1.194.09 1.638.27.444.168.804.39 1.08.666.288.264.51.546.666.846h.216V341.4h1.08V354h-1.044v-1.602h-.216c-.252.48-.648.912-1.188 1.296-.528.372-1.272.558-2.232.558zm.252-.972c.996 0 1.8-.318 2.412-.954.624-.636.936-1.512.936-2.628v-.144c0-1.116-.312-1.992-.936-2.628-.612-.636-1.416-.954-2.412-.954-.984 0-1.788.318-2.412.954-.624.636-.936 1.512-.936 2.628v.144c0 1.116.312 1.992.936 2.628.624.636 1.428.954 2.412.954zm7.605.72v-8.748h1.08V354h-1.08zm.54-10.26a.905.905 0 01-.666-.27.905.905 0 01-.27-.666c0-.276.09-.498.27-.666.18-.18.402-.27.666-.27.276 0 .498.09.666.27.18.168.27.39.27.666 0 .264-.09.486-.27.666-.168.18-.39.27-.666.27zm3.714 10.26v-8.748h1.044v1.62h.216c.216-.468.57-.882 1.062-1.242.492-.372 1.206-.558 2.142-.558.636 0 1.218.132 1.746.396s.948.666 1.26 1.206c.324.528.486 1.194.486 1.998V354h-1.08v-5.256c0-.96-.24-1.65-.72-2.07-.48-.42-1.122-.63-1.926-.63-.9 0-1.65.3-2.25.9-.6.588-.9 1.482-.9 2.682V354h-1.08zm10.589-4.338v-.216c0-.924.186-1.716.558-2.376a4.07 4.07 0 011.53-1.53 4.236 4.236 0 012.124-.54c.96 0 1.704.192 2.232.576.54.372.936.798 1.188 1.278h.216v-1.602h1.008v10.98c0 .432-.114.768-.342 1.008-.228.24-.576.36-1.044.36h-5.976v-.972h5.76c.372 0 .558-.18.558-.54v-3.762h-.216a3.49 3.49 0 01-.666.846c-.276.276-.636.504-1.08.684-.444.168-.99.252-1.638.252-.78 0-1.494-.18-2.142-.54a3.943 3.943 0 01-1.512-1.53c-.372-.672-.558-1.464-.558-2.376zm4.464 3.474c.996 0 1.8-.312 2.412-.936.624-.624.936-1.482.936-2.574v-.144c0-1.104-.312-1.962-.936-2.574-.612-.624-1.416-.936-2.412-.936-.984 0-1.788.312-2.412.936-.624.612-.936 1.47-.936 2.574v.144c0 1.092.312 1.95.936 2.574.624.624 1.428.936 2.412.936zm-350.736 24.116c-.9 0-1.686-.186-2.358-.558a4.058 4.058 0 01-1.548-1.602c-.372-.684-.558-1.47-.558-2.358v-.216c0-.9.186-1.686.558-2.358a3.97 3.97 0 011.53-1.584c.66-.384 1.41-.576 2.25-.576.816 0 1.536.174 2.16.522a3.613 3.613 0 011.494 1.476c.36.636.54 1.398.54 2.286v.576h-7.452c.036 1.092.366 1.938.99 2.538.636.588 1.434.882 2.394.882.816 0 1.446-.186 1.89-.558a3.659 3.659 0 001.044-1.368l.972.432c-.18.396-.432.786-.756 1.17-.312.372-.72.684-1.224.936-.504.24-1.146.36-1.926.36zm-3.366-5.328h6.336c-.048-.948-.354-1.674-.918-2.178-.564-.516-1.29-.774-2.178-.774-.876 0-1.602.258-2.178.774-.576.504-.93 1.23-1.062 2.178zm14.088 5.328c-.852 0-1.614-.18-2.286-.54a4.057 4.057 0 01-1.566-1.584c-.384-.684-.576-1.488-.576-2.412v-.18c0-.936.192-1.74.576-2.412a3.933 3.933 0 011.566-1.566c.672-.372 1.434-.558 2.286-.558.84 0 1.548.162 2.124.486.588.312 1.044.726 1.368 1.242.336.504.546 1.038.63 1.602l-1.062.216a3.132 3.132 0 00-.45-1.278 2.533 2.533 0 00-1.008-.936c-.432-.24-.966-.36-1.602-.36-.636 0-1.206.15-1.71.45a3.163 3.163 0 00-1.206 1.242c-.288.528-.432 1.158-.432 1.89v.144c0 .732.144 1.368.432 1.908.3.528.702.942 1.206 1.242a3.385 3.385 0 001.71.432c.96 0 1.692-.246 2.196-.738a3.298 3.298 0 00.936-1.836l1.062.216a4.342 4.342 0 01-.684 1.62c-.336.504-.798.918-1.386 1.242-.576.312-1.284.468-2.124.468zm10.846 0c-.888 0-1.668-.186-2.34-.558a4.091 4.091 0 01-1.548-1.584c-.36-.684-.54-1.476-.54-2.376v-.216c0-.9.18-1.686.54-2.358a3.935 3.935 0 011.548-1.584c.672-.384 1.452-.576 2.34-.576.888 0 1.662.192 2.322.576.672.372 1.188.9 1.548 1.584.372.672.558 1.458.558 2.358v.216c0 .9-.186 1.692-.558 2.376-.36.672-.876 1.2-1.548 1.584-.66.372-1.434.558-2.322.558zm0-.972c1.032 0 1.848-.324 2.448-.972.6-.66.9-1.53.9-2.61v-.144c0-1.08-.3-1.944-.9-2.592-.6-.66-1.416-.99-2.448-.99-1.02 0-1.836.33-2.448.99-.6.648-.9 1.512-.9 2.592v.144c0 1.08.3 1.95.9 2.61.612.648 1.428.972 2.448.972zm10.64.972c-1.056 0-1.962-.252-2.718-.756-.744-.504-1.2-1.338-1.368-2.502l1.062-.198c.096.636.288 1.14.576 1.512.3.36.66.618 1.08.774.432.156.888.234 1.368.234.72 0 1.296-.144 1.728-.432.444-.3.666-.708.666-1.224 0-.528-.21-.894-.63-1.098-.408-.204-.954-.366-1.638-.486l-.828-.144a6.61 6.61 0 01-1.494-.432 2.814 2.814 0 01-1.062-.81c-.252-.336-.378-.756-.378-1.26 0-.756.294-1.35.882-1.782.6-.432 1.392-.648 2.376-.648.996 0 1.794.228 2.394.684.612.444.996 1.092 1.152 1.944l-1.008.216c-.12-.696-.408-1.188-.864-1.476-.444-.288-1.002-.432-1.674-.432-.66 0-1.188.126-1.584.378-.396.252-.594.624-.594 1.116 0 .48.18.834.54 1.062.36.216.852.378 1.476.486l.828.144c.6.096 1.14.24 1.62.432.48.18.858.438 1.134.774.288.336.432.78.432 1.332 0 .828-.312 1.47-.936 1.926-.624.444-1.47.666-2.538.666zm7.133 3.348v-.972h5.112c.36 0 .54-.18.54-.54v-3.6h-.216a3.207 3.207 0 01-.612.828c-.252.252-.588.462-1.008.63-.408.156-.924.234-1.548.234a3.922 3.922 0 01-1.746-.396 3.116 3.116 0 01-1.278-1.188c-.312-.528-.468-1.194-.468-1.998v-5.346h1.08v5.274c0 .948.24 1.632.72 2.052.48.42 1.122.63 1.926.63.9 0 1.65-.294 2.25-.882.6-.588.9-1.482.9-2.682v-4.392h1.08v10.98c0 .432-.12.768-.36 1.008-.228.24-.576.36-1.044.36h-5.328zm13.38-3.348c-1.056 0-1.962-.252-2.718-.756-.744-.504-1.2-1.338-1.368-2.502l1.062-.198c.096.636.288 1.14.576 1.512.3.36.66.618 1.08.774.432.156.888.234 1.368.234.72 0 1.296-.144 1.728-.432.444-.3.666-.708.666-1.224 0-.528-.21-.894-.63-1.098-.408-.204-.954-.366-1.638-.486l-.828-.144a6.61 6.61 0 01-1.494-.432 2.814 2.814 0 01-1.062-.81c-.252-.336-.378-.756-.378-1.26 0-.756.294-1.35.882-1.782.6-.432 1.392-.648 2.376-.648.996 0 1.794.228 2.394.684.612.444.996 1.092 1.152 1.944l-1.008.216c-.12-.696-.408-1.188-.864-1.476-.444-.288-1.002-.432-1.674-.432-.66 0-1.188.126-1.584.378-.396.252-.594.624-.594 1.116 0 .48.18.834.54 1.062.36.216.852.378 1.476.486l.828.144c.6.096 1.14.24 1.62.432.48.18.858.438 1.134.774.288.336.432.78.432 1.332 0 .828-.312 1.47-.936 1.926-.624.444-1.47.666-2.538.666zm8.993-.252c-.468 0-.822-.12-1.062-.36-.228-.24-.342-.576-.342-1.008v-6.408h-2.808v-.972h2.808v-3.276h1.08v3.276h3.06v.972h-3.06v6.264c0 .36.18.54.54.54h2.052V377h-2.268zm8.862.252c-.9 0-1.686-.186-2.358-.558a4.058 4.058 0 01-1.548-1.602c-.372-.684-.558-1.47-.558-2.358v-.216c0-.9.186-1.686.558-2.358a3.97 3.97 0 011.53-1.584c.66-.384 1.41-.576 2.25-.576.816 0 1.536.174 2.16.522a3.613 3.613 0 011.494 1.476c.36.636.54 1.398.54 2.286v.576h-7.452c.036 1.092.366 1.938.99 2.538.636.588 1.434.882 2.394.882.816 0 1.446-.186 1.89-.558a3.659 3.659 0 001.044-1.368l.972.432c-.18.396-.432.786-.756 1.17-.312.372-.72.684-1.224.936-.504.24-1.146.36-1.926.36zm-3.366-5.328h6.336c-.048-.948-.354-1.674-.918-2.178-.564-.516-1.29-.774-2.178-.774-.876 0-1.602.258-2.178.774-.576.504-.93 1.23-1.062 2.178zM674.918 377v-8.748h1.044v1.152h.216c.18-.324.468-.624.864-.9.396-.288.96-.432 1.692-.432.708 0 1.278.162 1.71.486.444.324.762.714.954 1.17h.216c.204-.456.522-.846.954-1.17.432-.324 1.038-.486 1.818-.486.6 0 1.122.126 1.566.378.444.24.792.582 1.044 1.026.252.432.378.942.378 1.53V377h-1.08v-5.886c0-.624-.192-1.122-.576-1.494-.372-.384-.9-.576-1.584-.576-.696 0-1.278.228-1.746.684-.468.444-.702 1.098-.702 1.962V377h-1.08v-5.886c0-.624-.192-1.122-.576-1.494-.372-.384-.9-.576-1.584-.576-.696 0-1.278.228-1.746.684-.468.444-.702 1.098-.702 1.962V377h-1.08zm24.158.252c-.852 0-1.614-.18-2.286-.54a4.057 4.057 0 01-1.566-1.584c-.384-.684-.576-1.488-.576-2.412v-.18c0-.936.192-1.74.576-2.412a3.933 3.933 0 011.566-1.566c.672-.372 1.434-.558 2.286-.558.84 0 1.548.162 2.124.486.588.312 1.044.726 1.368 1.242.336.504.546 1.038.63 1.602l-1.062.216a3.132 3.132 0 00-.45-1.278 2.533 2.533 0 00-1.008-.936c-.432-.24-.966-.36-1.602-.36-.636 0-1.206.15-1.71.45a3.163 3.163 0 00-1.206 1.242c-.288.528-.432 1.158-.432 1.89v.144c0 .732.144 1.368.432 1.908.3.528.702.942 1.206 1.242a3.385 3.385 0 001.71.432c.96 0 1.692-.246 2.196-.738a3.298 3.298 0 00.936-1.836l1.062.216a4.342 4.342 0 01-.684 1.62c-.336.504-.798.918-1.386 1.242-.576.312-1.284.468-2.124.468zm10.846 0c-.888 0-1.668-.186-2.34-.558a4.091 4.091 0 01-1.548-1.584c-.36-.684-.54-1.476-.54-2.376v-.216c0-.9.18-1.686.54-2.358a3.935 3.935 0 011.548-1.584c.672-.384 1.452-.576 2.34-.576.888 0 1.662.192 2.322.576.672.372 1.188.9 1.548 1.584.372.672.558 1.458.558 2.358v.216c0 .9-.186 1.692-.558 2.376-.36.672-.876 1.2-1.548 1.584-.66.372-1.434.558-2.322.558zm0-.972c1.032 0 1.848-.324 2.448-.972.6-.66.9-1.53.9-2.61v-.144c0-1.08-.3-1.944-.9-2.592-.6-.66-1.416-.99-2.448-.99-1.02 0-1.836.33-2.448.99-.6.648-.9 1.512-.9 2.592v.144c0 1.08.3 1.95.9 2.61.612.648 1.428.972 2.448.972zm7.166.72v-8.748h1.044v1.152h.216c.18-.324.468-.624.864-.9.396-.288.96-.432 1.692-.432.708 0 1.278.162 1.71.486.444.324.762.714.954 1.17h.216c.204-.456.522-.846.954-1.17.432-.324 1.038-.486 1.818-.486.6 0 1.122.126 1.566.378.444.24.792.582 1.044 1.026.252.432.378.942.378 1.53V377h-1.08v-5.886c0-.624-.192-1.122-.576-1.494-.372-.384-.9-.576-1.584-.576-.696 0-1.278.228-1.746.684-.468.444-.702 1.098-.702 1.962V377h-1.08v-5.886c0-.624-.192-1.122-.576-1.494-.372-.384-.9-.576-1.584-.576-.696 0-1.278.228-1.746.684-.468.444-.702 1.098-.702 1.962V377h-1.08zm15.521 3.6v-12.348h1.044v1.602h.216c.252-.48.642-.906 1.17-1.278.54-.384 1.29-.576 2.25-.576.78 0 1.488.186 2.124.558.636.36 1.14.876 1.512 1.548.384.672.576 1.476.576 2.412v.216c0 .924-.186 1.728-.558 2.412a4.04 4.04 0 01-1.512 1.566c-.636.36-1.35.54-2.142.54-.636 0-1.182-.084-1.638-.252a3.425 3.425 0 01-1.098-.684 3.703 3.703 0 01-.648-.846h-.216v5.13h-1.08zm4.428-4.32c.996 0 1.8-.318 2.412-.954.624-.636.936-1.512.936-2.628v-.144c0-1.116-.312-1.992-.936-2.628-.612-.636-1.416-.954-2.412-.954-.984 0-1.788.318-2.412.954-.624.636-.936 1.512-.936 2.628v.144c0 1.116.312 1.992.936 2.628.624.636 1.428.954 2.412.954zm7.209.72v-8.748h1.044v1.098h.216c.168-.396.414-.684.738-.864.336-.18.798-.27 1.386-.27h1.026v1.008h-1.152c-.66 0-1.188.186-1.584.558-.396.372-.594.954-.594 1.746V377h-1.08zm6.645 0v-8.748h1.08V377h-1.08zm.54-10.26a.905.905 0 01-.666-.27.905.905 0 01-.27-.666c0-.276.09-.498.27-.666.18-.18.402-.27.666-.27.276 0 .498.09.666.27.18.168.27.39.27.666 0 .264-.09.486-.27.666-.168.18-.39.27-.666.27zm7.188 10.512c-1.056 0-1.962-.252-2.718-.756-.744-.504-1.2-1.338-1.368-2.502l1.062-.198c.096.636.288 1.14.576 1.512.3.36.66.618 1.08.774.432.156.888.234 1.368.234.72 0 1.296-.144 1.728-.432.444-.3.666-.708.666-1.224 0-.528-.21-.894-.63-1.098-.408-.204-.954-.366-1.638-.486l-.828-.144a6.61 6.61 0 01-1.494-.432 2.814 2.814 0 01-1.062-.81c-.252-.336-.378-.756-.378-1.26 0-.756.294-1.35.882-1.782.6-.432 1.392-.648 2.376-.648.996 0 1.794.228 2.394.684.612.444.996 1.092 1.152 1.944l-1.008.216c-.12-.696-.408-1.188-.864-1.476-.444-.288-1.002-.432-1.674-.432-.66 0-1.188.126-1.584.378-.396.252-.594.624-.594 1.116 0 .48.18.834.54 1.062.36.216.852.378 1.476.486l.828.144c.6.096 1.14.24 1.62.432.48.18.858.438 1.134.774.288.336.432.78.432 1.332 0 .828-.312 1.47-.936 1.926-.624.444-1.47.666-2.538.666zm6.035-.252v-8.748h1.08V377h-1.08zm.54-10.26a.905.905 0 01-.666-.27.905.905 0 01-.27-.666c0-.276.09-.498.27-.666.18-.18.402-.27.666-.27.276 0 .498.09.666.27.18.168.27.39.27.666 0 .264-.09.486-.27.666-.168.18-.39.27-.666.27zm3.714 10.26v-8.748h1.044v1.62h.216c.216-.468.57-.882 1.062-1.242.492-.372 1.206-.558 2.142-.558.636 0 1.218.132 1.746.396s.948.666 1.26 1.206c.324.528.486 1.194.486 1.998V377h-1.08v-5.256c0-.96-.24-1.65-.72-2.07-.48-.42-1.122-.63-1.926-.63-.9 0-1.65.3-2.25.9-.6.588-.9 1.482-.9 2.682V377h-1.08zm10.59-4.338v-.216c0-.924.186-1.716.558-2.376a4.07 4.07 0 011.53-1.53 4.236 4.236 0 012.124-.54c.96 0 1.704.192 2.232.576.54.372.936.798 1.188 1.278h.216v-1.602h1.008v10.98c0 .432-.114.768-.342 1.008-.228.24-.576.36-1.044.36h-5.976v-.972h5.76c.372 0 .558-.18.558-.54v-3.762h-.216a3.49 3.49 0 01-.666.846c-.276.276-.636.504-1.08.684-.444.168-.99.252-1.638.252-.78 0-1.494-.18-2.142-.54a3.943 3.943 0 01-1.512-1.53c-.372-.672-.558-1.464-.558-2.376zm4.464 3.474c.996 0 1.8-.312 2.412-.936.624-.624.936-1.482.936-2.574v-.144c0-1.104-.312-1.962-.936-2.574-.612-.624-1.416-.936-2.412-.936-.984 0-1.788.312-2.412.936-.624.612-.936 1.47-.936 2.574v.144c0 1.092.312 1.95.936 2.574.624.624 1.428.936 2.412.936zm16.062 1.116c-.876 0-1.662-.168-2.358-.504a3.887 3.887 0 01-1.62-1.458c-.384-.648-.576-1.428-.576-2.34v-.342h1.116v.36c0 1.02.318 1.824.954 2.412.636.576 1.464.864 2.484.864 1.032 0 1.836-.276 2.412-.828.576-.552.864-1.248.864-2.088v-.108c0-.624-.15-1.128-.45-1.512-.288-.384-.684-.666-1.188-.846a4.471 4.471 0 00-1.638-.288h-1.854v-1.512l5.112-3.474v-.18h-7.524V364.4h8.64v1.62l-5.058 3.438v.18h.99c.78 0 1.476.138 2.088.414.612.264 1.098.66 1.458 1.188.36.516.54 1.164.54 1.944v.18c0 .78-.18 1.464-.54 2.052-.36.576-.87 1.026-1.53 1.35-.66.324-1.434.486-2.322.486zm11.581-.252v-12.6h4.662c.744 0 1.41.144 1.998.432.6.276 1.074.678 1.422 1.206.348.528.522 1.17.522 1.926v.216c0 .756-.18 1.404-.54 1.944-.348.528-.822.93-1.422 1.206-.588.276-1.248.414-1.98.414h-3.51V377h-1.152zm1.152-6.3h3.384c.9 0 1.608-.222 2.124-.666.528-.444.792-1.068.792-1.872v-.18c0-.816-.258-1.44-.774-1.872-.504-.444-1.218-.666-2.142-.666h-3.384v5.256zm9.677 6.3v-12.6h1.08V377h-1.08zm6.936.252c-.612 0-1.17-.102-1.674-.306a2.749 2.749 0 01-1.17-.936c-.288-.408-.432-.9-.432-1.476 0-.588.144-1.074.432-1.458a2.608 2.608 0 011.17-.864 4.471 4.471 0 011.638-.288h3.204v-.702c0-.708-.204-1.26-.612-1.656-.408-.396-1.002-.594-1.782-.594-.768 0-1.38.192-1.836.576-.444.372-.744.876-.9 1.512l-1.044-.306a4.05 4.05 0 01.684-1.386c.312-.42.726-.75 1.242-.99.516-.252 1.134-.378 1.854-.378 1.104 0 1.956.288 2.556.864.612.576.918 1.38.918 2.412v4.248c0 .36.168.54.504.54h.846V377h-1.152c-.372 0-.666-.108-.882-.324-.216-.228-.324-.534-.324-.918v-.126h-.18c-.156.264-.36.522-.612.774-.24.252-.558.456-.954.612-.396.156-.894.234-1.494.234zm.072-.972c.924 0 1.668-.276 2.232-.828.576-.564.864-1.356.864-2.376v-.216h-3.186c-.624 0-1.146.138-1.566.414-.408.264-.612.678-.612 1.242s.21 1.002.63 1.314c.432.3.978.45 1.638.45zm10.205.72c-.468 0-.822-.12-1.062-.36-.228-.24-.342-.576-.342-1.008v-6.408h-2.808v-.972h2.808v-3.276h1.08v3.276h3.06v.972h-3.06v6.264c0 .36.18.54.54.54h2.052V377h-2.268zm6.402 0v-7.776h-2.88v-.972h2.88v-2.484c0-.432.114-.768.342-1.008.24-.24.594-.36 1.062-.36h2.16v.972h-1.944c-.36 0-.54.18-.54.54v2.34h2.952v.972h-2.952V377h-1.08zm9.666.252c-.888 0-1.668-.186-2.34-.558a4.091 4.091 0 01-1.548-1.584c-.36-.684-.54-1.476-.54-2.376v-.216c0-.9.18-1.686.54-2.358a3.935 3.935 0 011.548-1.584c.672-.384 1.452-.576 2.34-.576.888 0 1.662.192 2.322.576.672.372 1.188.9 1.548 1.584.372.672.558 1.458.558 2.358v.216c0 .9-.186 1.692-.558 2.376-.36.672-.876 1.2-1.548 1.584-.66.372-1.434.558-2.322.558zm0-.972c1.032 0 1.848-.324 2.448-.972.6-.66.9-1.53.9-2.61v-.144c0-1.08-.3-1.944-.9-2.592-.6-.66-1.416-.99-2.448-.99-1.02 0-1.836.33-2.448.99-.6.648-.9 1.512-.9 2.592v.144c0 1.08.3 1.95.9 2.61.612.648 1.428.972 2.448.972zm7.166.72v-8.748h1.044v1.098h.216c.168-.396.414-.684.738-.864.336-.18.798-.27 1.386-.27h1.026v1.008h-1.152c-.66 0-1.188.186-1.584.558-.396.372-.594.954-.594 1.746V377h-1.08zm6.644 0v-8.748h1.044v1.152h.216c.18-.324.468-.624.864-.9.396-.288.96-.432 1.692-.432.708 0 1.278.162 1.71.486.444.324.762.714.954 1.17h.216c.204-.456.522-.846.954-1.17.432-.324 1.038-.486 1.818-.486.6 0 1.122.126 1.566.378.444.24.792.582 1.044 1.026.252.432.378.942.378 1.53V377h-1.08v-5.886c0-.624-.192-1.122-.576-1.494-.372-.384-.9-.576-1.584-.576-.696 0-1.278.228-1.746.684-.468.444-.702 1.098-.702 1.962V377h-1.08v-5.886c0-.624-.192-1.122-.576-1.494-.372-.384-.9-.576-1.584-.576-.696 0-1.278.228-1.746.684-.468.444-.702 1.098-.702 1.962V377h-1.08zm18.996.252c-1.056 0-1.962-.252-2.718-.756-.744-.504-1.2-1.338-1.368-2.502l1.062-.198c.096.636.288 1.14.576 1.512.3.36.66.618 1.08.774.432.156.888.234 1.368.234.72 0 1.296-.144 1.728-.432.444-.3.666-.708.666-1.224 0-.528-.21-.894-.63-1.098-.408-.204-.954-.366-1.638-.486l-.828-.144a6.61 6.61 0 01-1.494-.432 2.814 2.814 0 01-1.062-.81c-.252-.336-.378-.756-.378-1.26 0-.756.294-1.35.882-1.782.6-.432 1.392-.648 2.376-.648.996 0 1.794.228 2.394.684.612.444.996 1.092 1.152 1.944l-1.008.216c-.12-.696-.408-1.188-.864-1.476-.444-.288-1.002-.432-1.674-.432-.66 0-1.188.126-1.584.378-.396.252-.594.624-.594 1.116 0 .48.18.834.54 1.062.36.216.852.378 1.476.486l.828.144c.6.096 1.14.24 1.62.432.48.18.858.438 1.134.774.288.336.432.78.432 1.332 0 .828-.312 1.47-.936 1.926-.624.444-1.47.666-2.538.666zm6.558 0a1 1 0 01-.738-.288 1 1 0 01-.288-.738 1 1 0 01.288-.738 1 1 0 01.738-.288 1 1 0 01.738.288 1 1 0 01.288.738 1 1 0 01-.288.738 1 1 0 01-.738.288z" fill="#DADADA"/><path d="M738.425 358.14a1.2 1.2 0 01-.882-.36 1.232 1.232 0 01-.342-.882v-5.904c0-.708-.39-1.062-1.17-1.062h-1.35v-1.044h1.35c.78 0 1.17-.354 1.17-1.062v-5.904c0-.348.114-.642.342-.882a1.2 1.2 0 01.882-.36h2.7v.936h-2.394c-.324 0-.486.18-.486.54v5.706c0 .444-.114.798-.342 1.062-.216.252-.54.378-.972.378h-.054v.216h.054c.432 0 .756.132.972.396.228.252.342.6.342 1.044v5.706c0 .36.162.54.486.54h2.394v.936h-2.7zm85.351 0v-.936h2.394c.324 0 .486-.18.486-.54v-5.706c0-.444.108-.792.324-1.044.228-.264.558-.396.99-.396h.054v-.216h-.054c-.432 0-.762-.126-.99-.378-.216-.264-.324-.618-.324-1.062v-5.706c0-.36-.162-.54-.486-.54h-2.394v-.936h2.7c.348 0 .636.12.864.36.24.24.36.534.36.882v5.904c0 .708.39 1.062 1.17 1.062h1.35v1.044h-1.35c-.78 0-1.17.354-1.17 1.062v5.904a1.2 1.2 0 01-.36.882 1.14 1.14 0 01-.864.36h-2.7z" fill="#E5456D"/><path d="M876.589 358.14a1.2 1.2 0 01-.882-.36 1.232 1.232 0 01-.342-.882v-5.904c0-.708-.39-1.062-1.17-1.062h-1.35v-1.044h1.35c.78 0 1.17-.354 1.17-1.062v-5.904c0-.348.114-.642.342-.882a1.2 1.2 0 01.882-.36h2.7v.936h-2.394c-.324 0-.486.18-.486.54v5.706c0 .444-.114.798-.342 1.062-.216.252-.54.378-.972.378h-.054v.216h.054c.432 0 .756.132.972.396.228.252.342.6.342 1.044v5.706c0 .36.162.54.486.54h2.394v.936h-2.7zm82.732 0v-.936h2.394c.324 0 .486-.18.486-.54v-5.706c0-.444.108-.792.324-1.044.228-.264.558-.396.99-.396h.054v-.216h-.054c-.432 0-.762-.126-.99-.378-.216-.264-.324-.618-.324-1.062v-5.706c0-.36-.162-.54-.486-.54h-2.394v-.936h2.7c.348 0 .636.12.864.36.24.24.36.534.36.882v5.904c0 .708.39 1.062 1.17 1.062h1.35v1.044h-1.35c-.78 0-1.17.354-1.17 1.062v5.904a1.2 1.2 0 01-.36.882 1.14 1.14 0 01-.864.36h-2.7z" fill="#4A64E5"/><path d="M599 305l-21.63 19.227a15.998 15.998 0 00-5.37 11.958V391a8 8 0 008 8v0m383-94l22.568 19.851A16 16 0 01991 336.865v54.99a8.145 8.145 0 01-8.145 8.145v0" stroke="#71637F"/><path d="M613.892 296.108c0-.317.098-.579.294-.784.205-.205.467-.308.784-.308h1.358v1.008h-.966c-.252 0-.378.14-.378.42v4.48c0 .317-.103.579-.308.784-.196.205-.457.308-.784.308h-.168v.168h.168c.327 0 .588.103.784.308.205.205.308.467.308.784v4.48c0 .28.126.42.378.42h.966v1.008h-1.358c-.317 0-.579-.103-.784-.308-.196-.205-.294-.467-.294-.784v-4.83c0-.271-.126-.406-.378-.406h-.714v-1.512h.714c.252 0 .378-.135.378-.406v-4.83zm18.895 10.388h.168V297.2h1.176v9.8h-2.352l-2.828-9.296h-.168V307h-1.176v-9.8h2.352l2.828 9.296zm3.406-9.296h5.936v1.092h-4.76v3.248h4.676v1.092h-4.676v3.276h4.844V307h-6.02v-9.8zm7.816 3.808c0-1.269.303-2.254.91-2.954.607-.7 1.451-1.05 2.534-1.05 1.083 0 1.927.35 2.534 1.05.607.7.91 1.685.91 2.954v2.184c0 1.307-.303 2.301-.91 2.982s-1.451 1.022-2.534 1.022c-1.083 0-1.927-.341-2.534-1.022-.607-.681-.91-1.675-.91-2.982v-2.184zm3.444 5.096c.756 0 1.321-.257 1.694-.77.383-.523.574-1.265.574-2.226v-2.016c0-.896-.191-1.619-.574-2.17-.373-.551-.938-.826-1.694-.826s-1.325.275-1.708.826c-.373.551-.56 1.274-.56 2.17v2.016c0 .961.187 1.703.56 2.226.383.513.952.77 1.708.77zm10.21.392h.168V297.2h1.176v9.8h-2.352l-2.828-9.296h-.168V307h-1.176v-9.8h2.352l2.828 9.296zm12.749-3.528V307h-1.176v-9.8h3.5c.504 0 .943.075 1.316.224.373.14.681.331.924.574.252.243.439.527.56.854.131.317.196.653.196 1.008v.42c0 .355-.065.695-.196 1.022a2.388 2.388 0 01-.56.868 2.862 2.862 0 01-.938.588c-.373.14-.807.21-1.302.21h-2.324zm0-1.092h2.184c1.307 0 1.96-.56 1.96-1.68v-.252c0-.495-.163-.891-.49-1.19-.317-.308-.807-.462-1.47-.462h-2.184v3.584zM683.688 307h-1.176v-3.276c0-.243-.056-.429-.168-.56-.112-.131-.308-.196-.588-.196h-3.052V307h-1.176v-9.8h3.5c.504 0 .943.075 1.316.224.373.14.681.331.924.574.252.243.439.527.56.854.131.317.196.653.196 1.008v.42c0 .364-.103.728-.308 1.092-.196.364-.504.644-.924.84v.168c.28.047.499.159.658.336.159.177.238.429.238.756V307zm-4.984-5.124h2.184c.663 0 1.153-.14 1.47-.42.327-.289.49-.709.49-1.26v-.252c0-.495-.163-.891-.49-1.19-.317-.308-.807-.462-1.47-.462h-2.184v3.584zm6.766-.868c0-1.269.304-2.254.91-2.954.607-.7 1.452-1.05 2.534-1.05 1.083 0 1.928.35 2.534 1.05.607.7.91 1.685.91 2.954v2.184c0 1.307-.303 2.301-.91 2.982-.606.681-1.451 1.022-2.534 1.022-1.082 0-1.927-.341-2.534-1.022-.606-.681-.91-1.675-.91-2.982v-2.184zm3.444 5.096c.756 0 1.321-.257 1.694-.77.383-.523.574-1.265.574-2.226v-2.016c0-.896-.191-1.619-.574-2.17-.373-.551-.938-.826-1.694-.826s-1.325.275-1.708.826c-.373.551-.56 1.274-.56 2.17v2.016c0 .961.187 1.703.56 2.226.383.513.952.77 1.708.77zm4.849-8.904h6.888v1.092h-2.856V307h-1.176v-8.708h-2.856V297.2zm8.292 3.808c0-1.269.303-2.254.91-2.954.607-.7 1.451-1.05 2.534-1.05 1.083 0 1.927.35 2.534 1.05.607.7.91 1.685.91 2.954v2.184c0 1.307-.303 2.301-.91 2.982s-1.451 1.022-2.534 1.022c-1.083 0-1.927-.341-2.534-1.022-.607-.681-.91-1.675-.91-2.982v-2.184zm3.444 5.096c.756 0 1.321-.257 1.694-.77.383-.523.574-1.265.574-2.226v-2.016c0-.896-.191-1.619-.574-2.17-.373-.551-.938-.826-1.694-.826s-1.325.275-1.708.826c-.373.551-.56 1.274-.56 2.17v2.016c0 .961.187 1.703.56 2.226.383.513.952.77 1.708.77zm8.348 0c.402 0 .742-.065 1.022-.196.29-.14.523-.322.7-.546.187-.233.322-.495.406-.784.094-.299.14-.611.14-.938v-.168h1.176v.168c0 .495-.074.961-.224 1.4a3.341 3.341 0 01-.658 1.134 3.117 3.117 0 01-1.078.756c-.429.177-.924.266-1.484.266-1.082 0-1.927-.341-2.534-1.022-.606-.681-.91-1.675-.91-2.982v-2.184c0-1.269.304-2.254.91-2.954.607-.7 1.452-1.05 2.534-1.05.56 0 1.055.093 1.484.28.43.177.789.429 1.078.756.29.317.509.695.658 1.134.15.429.224.891.224 1.386v.168h-1.176v-.168a3.386 3.386 0 00-.154-.924 2.086 2.086 0 00-.406-.784 1.807 1.807 0 00-.686-.546c-.28-.14-.62-.21-1.022-.21-.756 0-1.325.275-1.708.826-.373.551-.56 1.274-.56 2.17v2.016c0 .961.187 1.703.56 2.226.383.513.952.77 1.708.77zm4.792-5.096c0-1.269.304-2.254.91-2.954.607-.7 1.452-1.05 2.534-1.05 1.083 0 1.928.35 2.534 1.05.607.7.91 1.685.91 2.954v2.184c0 1.307-.303 2.301-.91 2.982-.606.681-1.451 1.022-2.534 1.022-1.082 0-1.927-.341-2.534-1.022-.606-.681-.91-1.675-.91-2.982v-2.184zm3.444 5.096c.756 0 1.321-.257 1.694-.77.383-.523.574-1.265.574-2.226v-2.016c0-.896-.191-1.619-.574-2.17-.373-.551-.938-.826-1.694-.826s-1.325.275-1.708.826c-.373.551-.56 1.274-.56 2.17v2.016c0 .961.187 1.703.56 2.226.383.513.952.77 1.708.77zm5.227-8.904h1.176v8.708h5.124V307h-6.3v-9.8zm20.042 3.738c0 .271.126.406.378.406h.714v1.512h-.714c-.252 0-.378.135-.378.406v4.83c0 .317-.102.579-.308.784-.196.205-.452.308-.77.308h-1.358v-1.008h.966c.252 0 .378-.14.378-.42v-4.48c0-.317.098-.579.294-.784.206-.205.472-.308.798-.308h.168v-.168h-.168c-.326 0-.592-.103-.798-.308-.196-.205-.294-.467-.294-.784v-4.48c0-.28-.126-.42-.378-.42h-.966v-1.008h1.358c.318 0 .574.103.77.308.206.205.308.467.308.784v4.83zm157.786-4.83c0-.317.098-.579.294-.784.206-.205.467-.308.784-.308h1.358v1.008h-.966c-.252 0-.378.14-.378.42v4.48c0 .317-.102.579-.308.784-.196.205-.457.308-.784.308h-.168v.168h.168c.327 0 .588.103.784.308.206.205.308.467.308.784v4.48c0 .28.126.42.378.42h.966v1.008h-1.358c-.317 0-.578-.103-.784-.308-.196-.205-.294-.467-.294-.784v-4.83c0-.271-.126-.406-.378-.406h-.714v-1.512h.714c.252 0 .378-.135.378-.406v-4.83zm13.533 4.9c0-1.269.303-2.254.91-2.954.607-.7 1.451-1.05 2.534-1.05 1.083 0 1.927.35 2.534 1.05.607.7.91 1.685.91 2.954v2.184c0 1.307-.303 2.301-.91 2.982s-1.451 1.022-2.534 1.022c-1.083 0-1.927-.341-2.534-1.022-.607-.681-.91-1.675-.91-2.982v-2.184zm3.444 5.124c.756 0 1.321-.261 1.694-.784.383-.532.574-1.279.574-2.24v-2.016c0-.448-.047-.854-.14-1.218a2.625 2.625 0 00-.434-.952 1.931 1.931 0 00-.714-.63 2.057 2.057 0 00-.98-.224c-.383 0-.714.075-.994.224-.28.149-.518.359-.714.63a2.77 2.77 0 00-.42.952c-.093.364-.14.77-.14 1.218v2.016c0 .961.187 1.708.56 2.24.383.523.952.784 1.708.784zm-.896-4.032c0-.243.089-.453.266-.63a.861.861 0 01.63-.266c.243 0 .453.089.63.266a.861.861 0 01.266.63.861.861 0 01-.266.63.861.861 0 01-.63.266.861.861 0 01-.63-.266.861.861 0 01-.266-.63zm8.67 3.808v-8.19h-.168l-1.61 3.682h-1.162v-.084l1.834-4.116h2.282v8.708h2.772V307h-6.72v-1.092h2.772zm17.495-4.97c0 .271.126.406.378.406h.714v1.512h-.714c-.252 0-.378.135-.378.406v4.83c0 .317-.103.579-.308.784-.196.205-.453.308-.77.308h-1.358v-1.008h.966c.252 0 .378-.14.378-.42v-4.48c0-.317.098-.579.294-.784.205-.205.471-.308.798-.308h.168v-.168h-.168c-.327 0-.593-.103-.798-.308-.196-.205-.294-.467-.294-.784v-4.48c0-.28-.126-.42-.378-.42h-.966v-1.008h1.358c.317 0 .574.103.77.308.205.205.308.467.308.784v4.83z" fill="#F2F2F2"/><circle cx="601.5" cy="302.5" r="1.5" fill="#71637F"/><path fill="#71637F" d="M601 297h1v11h-1z"/><path fill="#71637F" d="M596 303v-1h11v1z"/><circle cx="960.5" cy="302.5" r="1.5" fill="#71637F"/><path fill="#71637F" d="M960 297h1v11h-1z"/><path fill="#71637F" d="M955 303v-1h11v1z"/><path d="M512 251.5c116.427 0 214.302-79.428 242.395-187.053C763.285 30.39 790.952 1.5 826 1.5h197.5v1392H.5V1.5H198c35.048 0 62.715 28.89 71.605 62.947C297.698 172.072 395.573 251.5 512 251.5z" fill="#060606" stroke="url(#paint0_linear_183_1184)"/><path d="M1024 1H826c-35.346 0-63.162 29.12-72.089 63.32C725.874 171.732 628.194 251 512 251c-116.193 0-213.874-79.269-241.911-186.68C261.162 30.12 233.346 1 198 1H0" stroke="url(#paint1_linear_183_1184)"/></g><defs><linearGradient id="paint0_linear_183_1184" x1="-2174.5" y1="103.836" x2="-734.499" y2="103.836" gradientUnits="userSpaceOnUse"><stop stop-color="#fff" stop-opacity="0"/><stop offset=".495" stop-color="#fff" stop-opacity=".5"/><stop offset="1" stop-color="#fff" stop-opacity="0"/></linearGradient><linearGradient id="paint1_linear_183_1184" x1="0" y1="89.5" x2="1024" y2="80" gradientUnits="userSpaceOnUse"><stop stop-color="#fff" stop-opacity="0"/><stop offset=".495" stop-color="#fff" stop-opacity=".5"/><stop offset="1" stop-color="#fff" stop-opacity="0"/></linearGradient><clipPath id="clip0_183_1184"><path fill="#fff" d="M0 0h1024v538H0z"/></clipPath></defs></svg>