<svg width="1024" height="1141" fill="none" xmlns="http://www.w3.org/2000/svg"><mask id="a" style="mask-type:alpha" maskUnits="userSpaceOnUse" x="-208" y="0" width="1440" height="1140"><path d="M1232 0H-208v1071.08h564.029a31.997 31.997 0 0129.341 19.23l13.26 30.46a31.997 31.997 0 0029.341 19.23h168.058a31.997 31.997 0 0029.341-19.23l13.26-30.46a31.997 31.997 0 0129.341-19.23H1232V0z" fill="#D9D9D9"/></mask><g filter="url(#filter0_f_163_887)" mask="url(#a)"><circle cx="512" cy="1116" r="300" fill="#470C85"/></g><path d="M0 1071h356.019c12.74 0 24.267 7.56 29.347 19.24l13.268 30.52a32.006 32.006 0 0029.347 19.24h168.038c12.74 0 24.267-7.56 29.347-19.24l13.268-30.52a32.006 32.006 0 0129.347-19.24H1024" stroke="url(#paint0_linear_163_887)"/><defs><linearGradient id="paint0_linear_163_887" x1="0" y1="1093" x2="1024" y2="1088.5" gradientUnits="userSpaceOnUse"><stop stop-color="#fff" stop-opacity="0"/><stop offset=".495" stop-color="#fff" stop-opacity=".5"/><stop offset="1" stop-color="#fff" stop-opacity="0"/></linearGradient><filter id="filter0_f_163_887" x="-188" y="416" width="1400" height="1400" filterUnits="userSpaceOnUse" color-interpolation-filters="sRGB"><feFlood flood-opacity="0" result="BackgroundImageFix"/><feBlend in="SourceGraphic" in2="BackgroundImageFix" result="shape"/><feGaussianBlur stdDeviation="200" result="effect1_foregroundBlur_163_887"/></filter></defs></svg>