<svg width="390" height="736" fill="none" xmlns="http://www.w3.org/2000/svg"><mask id="a" style="mask-type:alpha" maskUnits="userSpaceOnUse" x="-269" y="0" width="929" height="735"><path d="M659.421 0H-269v690.567H87.2a32 32 0 0129.341 19.228l2.602 5.977A32 32 0 00148.484 735h93.453a32 32 0 0029.341-19.228l2.602-5.977a32 32 0 0129.341-19.228h356.2V0z" fill="#D9D9D9"/></mask><g filter="url(#filter0_f_107_1570)" mask="url(#a)"><circle cx="195.21" cy="719.526" r="193.421" fill="#470C85"/></g><path d="M-1 691h88.108a32 32 0 0129.296 19.127l2.525 5.746A32 32 0 00148.226 735h93.548a32 32 0 0029.297-19.127l2.525-5.746A32 32 0 01302.892 691H390" stroke="url(#paint0_linear_107_1570)"/><defs><linearGradient id="paint0_linear_107_1570" x1="-1" y1="713" x2="390" y2="713" gradientUnits="userSpaceOnUse"><stop stop-color="#fff" stop-opacity="0"/><stop offset=".495" stop-color="#fff" stop-opacity=".5"/><stop offset="1" stop-color="#fff" stop-opacity="0"/></linearGradient><filter id="filter0_f_107_1570" x="-398.211" y="126.105" width="1186.84" height="1186.84" filterUnits="userSpaceOnUse" color-interpolation-filters="sRGB"><feFlood flood-opacity="0" result="BackgroundImageFix"/><feBlend in="SourceGraphic" in2="BackgroundImageFix" result="shape"/><feGaussianBlur stdDeviation="200" result="effect1_foregroundBlur_107_1570"/></filter></defs></svg>