<svg width="358" height="458" fill="none" xmlns="http://www.w3.org/2000/svg"><path d="M257 8.5a8.504 8.504 0 008.238-6.397C265.473 1.18 266.193.5 267 .5h59c17.397 0 31.5 14.103 31.5 31.5v394c0 17.397-14.103 31.5-31.5 31.5h-59c-.807 0-1.527-.679-1.762-1.603a8.504 8.504 0 00-16.476 0c-.235.924-.955 1.603-1.762 1.603h-57.401a31.5 31.5 0 01-25.751-13.357l-11.879-16.861a32.5 32.5 0 00-26.568-13.782H32C14.603 413.5.5 399.397.5 382V32C.5 14.603 14.603.5 32 .5h215c.807 0 1.527.68 1.762 1.603A8.504 8.504 0 00257 8.5z" fill="#060606" stroke="#71637F"/></svg>