<svg width="379" height="458" fill="none" xmlns="http://www.w3.org/2000/svg"><path d="M347 .5c17.397 0 31.5 14.103 31.5 31.5v394c0 17.397-14.103 31.5-31.5 31.5h-76c-.807 0-1.527-.679-1.762-1.603a8.504 8.504 0 00-16.476 0c-.235.924-.955 1.603-1.762 1.603h-61.401a31.5 31.5 0 01-25.751-13.357l-11.879-16.861a32.5 32.5 0 00-26.568-13.782H32C14.603 413.5.5 399.397.5 382V251.938c0-.81.679-1.532 1.594-1.741C5.95 249.316 9.5 246.061 9.5 242c0-4.061-3.55-7.316-7.406-8.197-.915-.209-1.594-.931-1.594-1.741V32C.5 14.603 14.603.5 32 .5h315z" fill="#060606" stroke="#71637F"/></svg>