<svg width="34" height="34" fill="none" xmlns="http://www.w3.org/2000/svg"><path d="M9 1v0a8 8 0 00-8 8v16a8 8 0 008 8v0M25 1v0a8 8 0 018 8v16a8 8 0 01-8 8v0" stroke="#71637F"/><path fill-rule="evenodd" clip-rule="evenodd" d="M10.514 13.243c-.181.357-.181.823-.181 1.757v4c0 .933 0 1.4.181 1.756.16.314.415.569.729.728.357.182.823.182 1.757.182h8c.933 0 1.4 0 1.756-.182.314-.16.569-.414.728-.728.182-.356.182-.823.182-1.756v-4c0-.934 0-1.4-.182-1.757a1.666 1.666 0 00-.728-.729c-.356-.181-.823-.181-1.756-.181h-8c-.934 0-1.4 0-1.757.181-.314.16-.569.415-.729.729zm1.584.423h9.804a.334.334 0 01.185.611l-4.717 3.155a.666.666 0 01-.741 0l-4.717-3.155a.333.333 0 01.186-.61z" fill="#F2F2F2"/></svg>