<svg width="34" height="34" fill="none" xmlns="http://www.w3.org/2000/svg"><path d="M9 1v0a8 8 0 00-8 8v16a8 8 0 008 8v0M25 1v0a8 8 0 018 8v16a8 8 0 01-8 8v0" stroke="#71637F"/><path d="M21.806 11.436s1.296-.505 1.188.721c-.036.505-.36 2.273-.612 4.185l-.863 5.663s-.072.83-.72.974c-.647.144-1.619-.505-1.799-.65-.143-.108-2.698-1.73-3.597-2.524-.252-.217-.54-.65.036-1.155l3.777-3.607c.432-.433.864-1.443-.935-.216l-5.037 3.426s-.575.361-1.655.037l-2.338-.722s-.863-.54.612-1.082c3.597-1.695 8.022-3.427 11.943-5.05z" fill="#F2F2F2"/></svg>