<svg width="34" height="34" fill="none" xmlns="http://www.w3.org/2000/svg"><path d="M9 1v0a8 8 0 00-8 8v16a8 8 0 008 8v0M25 1v0a8 8 0 018 8v16a8 8 0 01-8 8v0" stroke="#71637F"/><g clip-path="url(#clip0_10_14)"><path d="M21.587 10h2.453l-5.387 5.941L24.947 24h-4.939l-3.867-4.897L11.715 24H9.26l5.707-6.354L8.941 10h5.062l3.493 4.474L21.586 10zm-.859 12.605h1.36l-8.8-11.262h-1.461l8.901 11.262z" fill="#F2F2F2"/></g><defs><clipPath id="clip0_10_14"><path fill="#fff" transform="translate(9 10)" d="M0 0h16v14H0z"/></clipPath></defs></svg>