<svg version="1.0" xmlns="http://www.w3.org/2000/svg" width="682.667" height="682.667" viewBox="0 0 512 512"><path d="M232 1c-49.1 4.7-98.1 24.7-136.5 55.7-12.9 10.4-34 32.1-43.3 44.5C24.8 137.7 7.9 179.4 1.8 225c-1.6 12.3-1.6 50.9 0 62.5 6.5 45.9 23.3 87.3 50.1 123 9.2 12.2 30.4 34.1 42.6 44 36.8 29.9 82.2 49.3 130.5 55.7 12.3 1.6 50.9 1.6 62.5 0 45.9-6.5 87.3-23.3 123-50.1 12.2-9.2 34.1-30.4 44-42.6 29.9-36.8 49.3-82.2 55.7-130.5 1.6-12.3 1.6-50.9 0-62.5-6.9-48.6-25.4-92.2-55.1-129.4C414.5 44.4 353.9 10.6 288 2 276.5.5 243.7-.1 232 1zm-10.6 142.5c7.7 1.6 17.1 5.7 24.3 10.6 2.7 1.8 16.7 15.1 31.3 29.6 14.6 14.4 27.1 26.3 27.8 26.3 3.7 0-1.1-5.8-22-26.8l-23.3-23.3 4-3.5c5.8-5.2 18.7-11 28.5-13 15.5-3.1 32.7-.2 47 7.8 3 1.7 9.1 6.8 13.5 11.2 8.9 9 14.2 18.2 17.2 29.6 2.2 8.6 2.2 23.5-.1 32-9.8 37-48.6 58.2-85.4 46.5-13.7-4.4-18.4-7.9-48.6-37.3-15.5-15-28.7-27.1-29.5-27-.8.2-1.6.8-1.8 1.3-.4 1.3 99 98.5 100.7 98.5.6 0 1.3-.7 1.7-1.5.4-1.1-4.2-6.2-14.8-16.6-8.5-8.3-14.5-14.7-13.4-14.3 27.5 9.7 56 3.7 76.3-16.1l8.2-8.1v6.6c0 4.7 1.2 10.6 4.2 21 3.8 13.4 4.1 15.4 4.2 27 0 11.2-.3 13.4-2.8 20.5-6.3 18.1-17.7 30.8-35.1 39.1-19 9.1-42.5 8.2-61.4-2.3-7.6-4.2-22.4-18.2-79.3-74.5-44.2-43.8-45-44.8-49.9-60.8-4.8-15.6-2.4-36.1 6.1-50.7 4-7 13.8-17.3 20.8-22 14.9-9.8 34.1-13.5 51.6-9.8zM252 352.1c0 .4-1.7 2.1-3.7 3.7-19.1 15-47.4 18.4-69.1 8.2-17.8-8.3-29.5-21.2-35.8-39.5-2.4-7-2.8-9.5-2.8-20 0-11.1.3-13.1 4.2-26.9 3-10.5 4.2-16.8 4.2-21.4v-6.4l51.5 50.8c28.3 27.9 51.5 51 51.5 51.5z"/></svg>