<svg width="279" height="79" fill="none" xmlns="http://www.w3.org/2000/svg"><path d="M28 14L6.37 33.227A16 16 0 001 45.184V70a8 8 0 008 8v0m241-64l22.49 19.526A16 16 0 01278 45.608v24.247A8.145 8.145 0 01269.855 78v0" stroke="#71637F"/><circle cx="30.5" cy="11.5" r="1.5" fill="#71637F"/><path fill="#71637F" d="M30 6h1v11h-1z"/><path fill="#71637F" d="M25 12v-1h11v1z"/><circle cx="247.5" cy="11.5" r="1.5" fill="#71637F"/><path fill="#71637F" d="M247 6h1v11h-1z"/><path fill="#71637F" d="M242 12v-1h11v1z"/></svg>