<svg width="329" height="170" fill="none" xmlns="http://www.w3.org/2000/svg"><path d="M28 14L6.37 33.227A16 16 0 001 45.184V160a8 8 0 008 8v0M301 14l21.772 19.825A16 16 0 01328 45.655v115.49a7.855 7.855 0 01-7.855 7.855v0" stroke="#71637F"/><circle cx="30.5" cy="11.5" r="1.5" fill="#71637F"/><path fill="#71637F" d="M30 6h1v11h-1z"/><path fill="#71637F" d="M25 12v-1h11v1z"/><circle cx="297.5" cy="11.5" r="1.5" fill="#71637F"/><path fill="#71637F" d="M297 6h1v11h-1z"/><path fill="#71637F" d="M292 12v-1h11v1z"/></svg>