<svg width="135" height="230" fill="none" xmlns="http://www.w3.org/2000/svg"><circle cx="6" cy="41" r="3" fill="#71637F"/><circle cx="6" cy="41" r="5.5" stroke="#71637F"/><circle cx="129" cy="6" r="3" fill="#71637F"/><circle cx="129" cy="6" r="5.5" stroke="#71637F"/><circle cx="129" cy="224" r="3" fill="#71637F"/><circle cx="129" cy="224" r="5.5" stroke="#71637F"/><rect x="6.309" y="41.171" width="127.5" height=".5" rx=".25" transform="rotate(-16 6.31 41.171)" stroke="url(#paint0_linear_128_683)" stroke-width=".5"/><rect x="129.464" y="223.705" width="217.455" height=".5" rx=".25" transform="rotate(-90.056 129.464 223.705)" stroke="url(#paint1_linear_128_683)" stroke-width=".5"/><rect x="128.186" y="222.413" width="217.455" height=".5" rx=".25" transform="rotate(-123.759 128.186 222.413)" stroke="url(#paint2_linear_128_683)" stroke-width=".5"/><circle cx="68" cy="132" r="5.5" fill="#060606" stroke="#71637F"/><circle cx="68" cy="132" r="3" fill="#71637F"/><defs><linearGradient id="paint0_linear_128_683" x1="8.321" y1="42" x2="12.626" y2="64.199" gradientUnits="userSpaceOnUse"><stop stop-color="#A0EE6A" stop-opacity="0"/><stop offset=".505" stop-color="#A0EE6A"/><stop offset="1" stop-color="#A0EE6A" stop-opacity="0"/></linearGradient><linearGradient id="paint1_linear_128_683" x1="133.166" y1="224.955" x2="135.756" y2="247.694" gradientUnits="userSpaceOnUse"><stop stop-color="#A0EE6A" stop-opacity="0"/><stop offset=".505" stop-color="#A0EE6A"/><stop offset="1" stop-color="#A0EE6A" stop-opacity="0"/></linearGradient><linearGradient id="paint2_linear_128_683" x1="132.07" y1="223.76" x2="134.659" y2="246.498" gradientUnits="userSpaceOnUse"><stop stop-color="#A0EE6A" stop-opacity="0"/><stop offset=".505" stop-color="#A0EE6A"/><stop offset="1" stop-color="#A0EE6A" stop-opacity="0"/></linearGradient></defs></svg>