<svg width="496" height="179" fill="none" xmlns="http://www.w3.org/2000/svg"><path d="M28 14L6.37 33.227A16 16 0 001 45.184V170a8 8 0 008 8v0M468 13.001l21.77 19.814A16.001 16.001 0 01495 44.648v125.498a7.855 7.855 0 01-7.855 7.855v0" stroke="#71637F"/><circle cx="30.5" cy="11.5" r="1.5" fill="#71637F"/><path fill="#71637F" d="M30 6h1v11h-1z"/><path fill="#71637F" d="M25 12v-1h11v1z"/><circle cx="464.5" cy="11.5" r="1.5" fill="#71637F"/><path fill="#71637F" d="M464 6h1v11h-1z"/><path fill="#71637F" d="M459 12v-1h11v1z"/></svg>