<svg width="329" height="149" fill="none" xmlns="http://www.w3.org/2000/svg"><path d="M28 14L6.37 33.227A16 16 0 001 45.184V140a8 8 0 008 8v0M300 14l22.515 19.633A16 16 0 01328 45.693v94.162a8.145 8.145 0 01-8.145 8.145v0" stroke="#71637F"/><circle cx="30.5" cy="11.5" r="1.5" fill="#71637F"/><path fill="#71637F" d="M30 6h1v11h-1z"/><path fill="#71637F" d="M25 12v-1h11v1z"/><circle cx="297.5" cy="11.5" r="1.5" fill="#71637F"/><path fill="#71637F" d="M297 6h1v11h-1z"/><path fill="#71637F" d="M292 12v-1h11v1z"/></svg>