<svg width="241" height="110" fill="none" xmlns="http://www.w3.org/2000/svg"><path d="M28 14L6.37 33.227A16 16 0 001 45.184V100a8 8 0 008 8v0m203-94l22.568 19.851A16 16 0 01240 45.865v54.99a8.145 8.145 0 01-8.145 8.145v0" stroke="#71637F"/><circle cx="30.5" cy="11.5" r="1.5" fill="#71637F"/><path fill="#71637F" d="M30 6h1v11h-1z"/><path fill="#71637F" d="M25 12v-1h11v1z"/><circle cx="209.5" cy="11.5" r="1.5" fill="#71637F"/><path fill="#71637F" d="M209 6h1v11h-1z"/><path fill="#71637F" d="M204 12v-1h11v1z"/></svg>