<svg width="258" height="80" fill="none" xmlns="http://www.w3.org/2000/svg"><path d="M28 14L6.37 33.227A16 16 0 001 45.184V70a8 8 0 008 8v0m221-64l21.797 19.932A16 16 0 01257 45.74v25.405A7.855 7.855 0 01249.145 79v0" stroke="#71637F"/><circle cx="30.5" cy="11.5" r="1.5" fill="#71637F"/><path fill="#71637F" d="M30 6h1v11h-1z"/><path fill="#71637F" d="M25 12v-1h11v1z"/><circle cx="226.5" cy="11.5" r="1.5" fill="#71637F"/><path fill="#71637F" d="M226 6h1v11h-1z"/><path fill="#71637F" d="M221 12v-1h11v1z"/></svg>