<svg width="1440" height="406" fill="none" xmlns="http://www.w3.org/2000/svg"><path d="M0 1h567.264A32.001 32.001 0 01594.4 16.04l11.2 17.92A32 32 0 00632.736 49h174.528A32 32 0 00834.4 33.96l11.2-17.92A32.001 32.001 0 01872.736 1H1440v405H0V1z" fill="#060606"/><path d="M0 1h567.264A32.001 32.001 0 01594.4 16.04l11.2 17.92A32 32 0 00632.736 49h174.528A32 32 0 00834.4 33.96l11.2-17.92A32.001 32.001 0 01872.736 1H1440" stroke="url(#paint0_linear_340_14217)"/><defs><linearGradient id="paint0_linear_340_14217" x1="0" y1="25" x2="1440" y2="25" gradientUnits="userSpaceOnUse"><stop stop-color="#fff" stop-opacity="0"/><stop offset=".495" stop-color="#fff" stop-opacity=".5"/><stop offset="1" stop-color="#fff" stop-opacity="0"/></linearGradient></defs></svg>