<svg width="390" height="406" fill="none" xmlns="http://www.w3.org/2000/svg"><path d="M-525 1H42.264A32 32 0 0169.4 16.04l11.2 17.92A32 32 0 00107.736 49h174.528A32 32 0 00309.4 33.96l11.2-17.92A32.001 32.001 0 01347.736 1H915v405H-525V1z" fill="#060606"/><path d="M-525 1H42.264A32 32 0 0169.4 16.04l11.2 17.92A32 32 0 00107.736 49h174.528A32 32 0 00309.4 33.96l11.2-17.92A32.001 32.001 0 01347.736 1H915" stroke="url(#paint0_linear_157_3014)"/><defs><linearGradient id="paint0_linear_157_3014" x1="-525" y1="25" x2="915" y2="25" gradientUnits="userSpaceOnUse"><stop stop-color="#fff" stop-opacity="0"/><stop offset=".495" stop-color="#fff" stop-opacity=".5"/><stop offset="1" stop-color="#fff" stop-opacity="0"/></linearGradient></defs></svg>