<svg width="1376" height="580" fill="none" xmlns="http://www.w3.org/2000/svg"><path d="M1375.5 32v516c0 17.397-14.1 31.5-31.5 31.5H32C14.603 579.5.5 565.397.5 548V21.203C.5 9.769 9.769.5 21.203.5c6.624 0 12.847 3.17 16.743 8.526l16.065 22.09A32.5 32.5 0 0080.295 44.5h142.41a32.5 32.5 0 0026.284-13.384l13.005-17.882a30.918 30.918 0 0150.012 0l13.005 17.882A32.5 32.5 0 00351.295 44.5h142.41a32.5 32.5 0 0026.284-13.384l13.005-17.882a30.918 30.918 0 0150.012 0l13.005 17.882A32.5 32.5 0 00622.295 44.5h142.41a32.5 32.5 0 0026.284-13.384l12.831-17.643A31.5 31.5 0 01829.295.5H1344c17.4 0 31.5 14.103 31.5 31.5z" fill="#060606" stroke="#71637F"/></svg>