<svg width="1440" height="355" fill="none" xmlns="http://www.w3.org/2000/svg"><path d="M720 251.5c116.427 0 214.302-79.428 242.395-187.053C971.285 30.39 998.952 1.5 1034 1.5h405.5v676H.5V1.5H406c35.048 0 62.715 28.89 71.605 62.947C505.698 172.072 603.573 251.5 720 251.5z" fill="#060606" stroke="url(#paint0_linear_222_3867)"/><path d="M1440 1h-406c-35.346 0-63.162 29.12-72.089 63.32C933.874 171.732 836.194 251 720 251c-116.193 0-213.874-79.269-241.911-186.68C469.162 30.12 441.346 1 406 1H0" stroke="url(#paint1_linear_222_3867)"/><defs><linearGradient id="paint0_linear_222_3867" x1="-1966.5" y1="103.835" x2="-526.5" y2="103.835" gradientUnits="userSpaceOnUse"><stop stop-color="#fff" stop-opacity="0"/><stop offset=".495" stop-color="#fff" stop-opacity=".5"/><stop offset="1" stop-color="#fff" stop-opacity="0"/></linearGradient><linearGradient id="paint1_linear_222_3867" x1="0" y1="103.835" x2="1440" y2="103.835" gradientUnits="userSpaceOnUse"><stop stop-color="#fff" stop-opacity="0"/><stop offset=".495" stop-color="#fff" stop-opacity=".5"/><stop offset="1" stop-color="#fff" stop-opacity="0"/></linearGradient></defs></svg>