<svg width="8" height="85" fill="none" xmlns="http://www.w3.org/2000/svg"><path d="M8 0H0v.68h8V0zm0 10.878H.015v.68H8v-.68zm0 2.708H.015v.68H8v-.68zm0 8.17H.015v.682H8v-.682zm0 5.464H.015v.68H8v-.68zm0 8.124H.015v.68H8v-.68zm0 2.754H.015v.68H8v-.68zm0 8.124H.015v.68H8v-.68zm0 8.17H.015v.68H8v-.68zm0 5.463H.015v.68H8v-.68zm0 5.415H.015v.68H8v-.68zm0 8.17H.015v.68H8v-.68zm0 2.708H.015v.68H8v-.68zm0 8.172H.015V85H8v-.68zM3.05 5.476H.008v.65H3.05v-.65zm.007 2.709H.015v.647h3.042v-.647zm-.004 8.171H.017v.652h3.036v-.652zm-.003 2.708H.006v.647h3.042v-.647zm.003 5.417H.017v.652h3.036v-.652zm-.004 5.455H.017v.66h3.032v-.66zm-.001 2.716H.004v.644h3.044v-.644zm-.003 8.165H.01v.652h3.036v-.652zm0 2.709H.01v.652h3.036v-.652zm0 5.461H.01v.652h3.036v-.652zM3.05 51.7H.017v.654H3.05V51.7zm-.005 5.411H.01v.654h3.036v-.654zm0 5.464H.01v.652h3.036v-.652zm0 5.415H.01v.653h3.036v-.654zm.008 2.759H.017v.652h3.036v-.652zm0 8.124H.017v.652h3.036v-.652zm-.004 2.755H.01v.652h3.038v-.652zm.004-78.903H.017v.653h3.036v-.653z" fill="#4F5153"/></svg>