<svg width="1440" height="794" fill="none" xmlns="http://www.w3.org/2000/svg"><mask id="a" style="mask-type:alpha" maskUnits="userSpaceOnUse" x="0" y="-1" width="1440" height="794"><path d="M1440-1H0v746h567.264a32.001 32.001 0 0127.136 15.04l11.2 17.92A32.001 32.001 0 00632.736 793h174.528a32.001 32.001 0 0027.136-15.04l11.2-17.92A32.001 32.001 0 01872.736 745H1440V-1z" fill="#D9D9D9"/></mask><g filter="url(#filter0_f_19_1998)" mask="url(#a)"><circle cx="720" cy="769" r="300" fill="#470C85"/></g><path d="M0 745h567.264a32.001 32.001 0 0127.136 15.04l11.2 17.92A32.001 32.001 0 00632.736 793h174.528a32.001 32.001 0 0027.136-15.04l11.2-17.92A32.001 32.001 0 01872.736 745H1440" stroke="url(#paint0_linear_19_1998)"/><defs><linearGradient id="paint0_linear_19_1998" x1="0" y1="769" x2="1440" y2="769" gradientUnits="userSpaceOnUse"><stop stop-color="#fff" stop-opacity="0"/><stop offset=".495" stop-color="#fff" stop-opacity=".5"/><stop offset="1" stop-color="#fff" stop-opacity="0"/></linearGradient><filter id="filter0_f_19_1998" x="20" y="69" width="1400" height="1400" filterUnits="userSpaceOnUse" color-interpolation-filters="sRGB"><feFlood flood-opacity="0" result="BackgroundImageFix"/><feBlend in="SourceGraphic" in2="BackgroundImageFix" result="shape"/><feGaussianBlur stdDeviation="200" result="effect1_foregroundBlur_19_1998"/></filter></defs></svg>