<svg width="359" height="221" fill="none" xmlns="http://www.w3.org/2000/svg"><path d="M27 16L5.91 36.279A16 16 0 001 47.812V212a8 8 0 008 8v0M332 15l21.222 20.881A15.999 15.999 0 01358 47.286v164.557a8.157 8.157 0 01-8.157 8.157v0" stroke="#71637F"/><circle cx="30.5" cy="11.5" r="1.5" fill="#71637F"/><path fill="#71637F" d="M30 6h1v11h-1z"/><path fill="#71637F" d="M25 12v-1h11v1z"/><circle cx="328.5" cy="11.5" r="1.5" fill="#71637F"/><path fill="#71637F" d="M328 6h1v11h-1z"/><path fill="#71637F" d="M323 12v-1h11v1z"/></svg>