<svg width="556" height="151" fill="none" xmlns="http://www.w3.org/2000/svg"><path d="M27 16L5.91 36.279A16 16 0 001 47.812V142a8 8 0 008 8v0M529 15l21.222 20.881A15.999 15.999 0 01555 47.286v94.557a8.157 8.157 0 01-8.157 8.157v0" stroke="#71637F"/><circle cx="30.5" cy="11.5" r="1.5" fill="#71637F"/><path fill="#71637F" d="M30 6h1v11h-1z"/><path fill="#71637F" d="M25 12v-1h11v1z"/><circle cx="525.5" cy="11.5" r="1.5" fill="#71637F"/><path fill="#71637F" d="M525 6h1v11h-1z"/><path fill="#71637F" d="M520 12v-1h11v1z"/></svg>