<svg width="145" height="113" fill="none" xmlns="http://www.w3.org/2000/svg"><path d="M144.196 20c0 2.501-1.83 5.001-5.432 7.367-3.582 2.352-8.799 4.49-15.29 6.293-12.975 3.605-30.927 5.84-50.778 5.84-19.85 0-37.803-2.236-50.778-5.84-6.49-1.803-11.707-3.94-15.29-6.293C3.027 25.001 1.197 22.501 1.197 20c0-2.501 1.83-5.001 5.433-7.367 3.582-2.352 8.799-4.49 15.29-6.293C34.892 2.736 52.845.5 72.695.5s37.803 2.236 50.778 5.84c6.491 1.803 11.708 3.94 15.29 6.293 3.602 2.366 5.432 4.866 5.432 7.367z" stroke="#E5456D"/><path d="M127.983 19.776c0 2.009-1.458 3.98-4.241 5.82-2.772 1.832-6.801 3.492-11.801 4.89-9.997 2.795-23.823 4.527-39.104 4.527-15.281 0-29.107-1.732-39.104-4.527-5-1.398-9.029-3.058-11.801-4.89-2.783-1.84-4.242-3.811-4.242-5.82 0-2.009 1.46-3.98 4.242-5.82 2.772-1.832 6.8-3.492 11.801-4.89C43.73 6.27 57.556 4.539 72.837 4.539c15.281 0 29.107 1.732 39.104 4.527 5 1.398 9.029 3.058 11.801 4.89 2.783 1.84 4.241 3.811 4.241 5.82z" stroke="#E5456D" stroke-width=".5"/><path d="M144.196 93c0 2.501-1.83 5.001-5.432 7.367-3.582 2.353-8.799 4.49-15.29 6.293-12.975 3.604-30.927 5.84-50.778 5.84-19.85 0-37.803-2.236-50.778-5.84-6.49-1.803-11.707-3.94-15.29-6.293C3.027 98.001 1.197 95.501 1.197 93c0-2.501 1.83-5.001 5.433-7.367 3.582-2.352 8.799-4.49 15.29-6.293 12.974-3.605 30.927-5.84 50.777-5.84s37.803 2.236 50.778 5.84c6.491 1.803 11.708 3.94 15.29 6.293 3.602 2.366 5.432 4.866 5.432 7.367z" stroke="#E5456D"/><path d="M144.196 20v73m-143-72.5v72m7.291-64.003v72.988m0-72.988v72.988m24.619-65.107v72.989M67.495 39.51v72.99m36.946-74.745v72.989M12.877 9.4v72.752M41.191 2.63v72.854M78.053.51v73.024m34.211-70.053V76.77m24.713-65.224V84.54m-4.586-53.895v72.993M72.703 93.171L126.7 22.593m-53.998 70.58L20.127 23.927M72.703 93.17l49.438-79.627M72.703 93.17l30.551-85.717M72.703 93.172l4.113-88.07m-4.113 88.07l-3.985-58.137m3.985 58.136L48.717 6.605m23.986 86.567L42.43 32.455M72.703 93.17L96.99 33.556M72.703 93.17l45.905-64.933M72.703 93.171L27.28 12.054" stroke="#E5456D" stroke-width=".5"/></svg>