<svg width="390" height="406" fill="none" xmlns="http://www.w3.org/2000/svg"><path d="M-525 405H42.264A32 32 0 0069.4 389.96l11.2-17.92A32 32 0 01107.736 357h174.528a32.001 32.001 0 0127.136 15.04l11.2 17.92A32.001 32.001 0 00347.736 405H915V0H-525v405z" fill="#060606"/><path d="M-525 405H42.264A32 32 0 0069.4 389.96l11.2-17.92A32 32 0 01107.736 357h174.528a32.001 32.001 0 0127.136 15.04l11.2 17.92A32.001 32.001 0 00347.736 405H915" stroke="url(#paint0_linear_157_3017)"/><defs><linearGradient id="paint0_linear_157_3017" x1="-525" y1="381" x2="915" y2="381" gradientUnits="userSpaceOnUse"><stop stop-color="#fff" stop-opacity="0"/><stop offset=".495" stop-color="#fff" stop-opacity=".5"/><stop offset="1" stop-color="#fff" stop-opacity="0"/></linearGradient></defs></svg>