<svg width="1440" height="406" fill="none" xmlns="http://www.w3.org/2000/svg"><path d="M0 405h567.264a32.001 32.001 0 0027.136-15.04l11.2-17.92A32.001 32.001 0 01632.736 357h174.528a32.001 32.001 0 0127.136 15.04l11.2 17.92A32.001 32.001 0 00872.736 405H1440V0H0v405z" fill="#060606"/><path d="M0 405h567.264a32.001 32.001 0 0027.136-15.04l11.2-17.92A32.001 32.001 0 01632.736 357h174.528a32.001 32.001 0 0127.136 15.04l11.2 17.92A32.001 32.001 0 00872.736 405H1440" stroke="url(#paint0_linear_340_14220)"/><defs><linearGradient id="paint0_linear_340_14220" x1="0" y1="381" x2="1440" y2="381" gradientUnits="userSpaceOnUse"><stop stop-color="#fff" stop-opacity="0"/><stop offset=".495" stop-color="#fff" stop-opacity=".5"/><stop offset="1" stop-color="#fff" stop-opacity="0"/></linearGradient></defs></svg>