<svg width="223" height="223" fill="none" xmlns="http://www.w3.org/2000/svg"><path d="M.5 191c0 17.397 14.103 31.5 31.5 31.5h159c17.397 0 31.5-14.103 31.5-31.5v-18c0-.809-.684-1.542-1.611-1.81-1.966-.568-3.805-1.87-5.153-3.51-1.347-1.639-2.236-3.657-2.236-5.68 0-2.024.89-4.031 2.237-5.658 1.348-1.628 3.188-2.915 5.153-3.477.926-.264 1.61-.997 1.61-1.806V50c0-8.56-6.94-15.5-15.5-15.5h-27.591a32.5 32.5 0 01-27.286-14.844l-3.085-4.768A31.501 31.501 0 00122.591.5H32C14.603.5.5 14.603.5 32v120c0 .807.68 1.527 1.603 1.762a8.504 8.504 0 010 16.476C1.18 170.473.5 171.193.5 172v19z" fill="#060606" stroke="#71637F"/></svg>