<svg width="258" height="312" fill="none" xmlns="http://www.w3.org/2000/svg"><path d="M257.5 280c0 17.397-14.103 31.5-31.5 31.5H32C14.603 311.5.5 297.397.5 280v-18c0-.809.684-1.542 1.611-1.81 1.966-.568 3.805-1.87 5.153-3.51C8.611 255.041 9.5 253.023 9.5 251c0-2.024-.89-4.031-2.237-5.658-1.348-1.628-3.188-2.915-5.153-3.477-.926-.264-1.61-.997-1.61-1.806V50c0-8.56 6.94-15.5 15.5-15.5h27.591a32.5 32.5 0 0027.286-14.844l3.085-4.768A31.5 31.5 0 01100.41.5H226c17.397 0 31.5 14.103 31.5 31.5v209c0 .807-.679 1.527-1.603 1.762a8.504 8.504 0 000 16.476c.924.235 1.603.955 1.603 1.762v19z" fill="#060606" stroke="#71637F"/></svg>