<svg width="16" height="16" fill="none" xmlns="http://www.w3.org/2000/svg"><path d="M3.667 3.017a.87.87 0 00.618.255h7.456a.879.879 0 00.617-.255l.764-.764a.874.874 0 000-1.235l-.764-.763A.87.87 0 0011.741 0H4.285a.879.879 0 00-.618.255l-.763.763a.874.874 0 000 1.235l.763.764zm-.395 8.727V4.288a.879.879 0 00-.255-.618l-.764-.763a.874.874 0 00-1.235 0l-.763.763A.87.87 0 000 4.288v7.456c0 .232.092.453.255.617l.763.764c.34.34.895.34 1.235 0l.764-.764a.87.87 0 00.255-.617zm9.055 1.239a.87.87 0 00-.618-.255H4.254a.879.879 0 00-.618.255l-.764.764a.874.874 0 000 1.235l.764.764a.87.87 0 00.618.254h7.455a.879.879 0 00.618-.254l.764-.764a.874.874 0 000-1.235l-.764-.764zm3.415-9.347l-.764-.764a.874.874 0 00-1.235 0l-.764.764a.87.87 0 00-.254.618v7.455c0 .232.092.453.254.618l.764.764c.34.34.895.34 1.235 0l.764-.764a.87.87 0 00.254-.618V4.254a.879.879 0 00-.254-.618z" fill="#443C4D"/></svg>