<svg width="16" height="16" fill="none" xmlns="http://www.w3.org/2000/svg"><path d="M15.627 1.63L14.37.372a1.271 1.271 0 00-.9-.373H2.53c-.338 0-.66.134-.9.373L.373 1.63c-.239.24-.373.562-.373.9v10.94c0 .338.134.66.373.9l1.256 1.256c.24.239.562.373.9.373H13.47c.338 0 .66-.134.9-.373l1.256-1.256c.239-.24.373-.562.373-.9V2.53c0-.338-.134-.66-.373-.9zm-3.08 10.916a.412.412 0 01-.58 0l-2.11-2.11a.411.411 0 00-.29-.12H6.433a.407.407 0 00-.29.12l-2.11 2.11a.412.412 0 01-.58-.582l2.11-2.11a.411.411 0 00.119-.29V6.432a.411.411 0 00-.12-.29l-2.11-2.11a.412.412 0 01.581-.581l2.11 2.11c.077.076.182.12.29.12h3.134c.11 0 .213-.044.29-.12l2.11-2.11a.411.411 0 01.58.581l-2.11 2.11a.411.411 0 00-.119.29v3.134c0 .107.043.213.12.29l2.11 2.11c.16.16.16.42 0 .58z" fill="#443C4D"/></svg>