<svg width="11" height="12" fill="none" xmlns="http://www.w3.org/2000/svg"><path d="M7.5 5.162a.953.953 0 010 1.676l-6 5.03c-.667.373-1.5-.092-1.5-.838V8.968A1 1 0 01.36 8.2l1.718-1.432a1 1 0 000-1.536L.36 3.8A1 1 0 010 3.032V.97C0 .224.833-.241 1.5.13l6 5.03z" fill="#F2F2F2"/><path opacity=".3" d="M10.5 5.162a.953.953 0 010 1.676l-6 5.03c-.667.373-1.5-.092-1.5-.838V8.968a1 1 0 01.36-.768l1.718-1.432a1 1 0 000-1.536L3.36 3.8A1 1 0 013 3.032V.97c0-.746.833-1.211 1.5-.84l6 5.03z" fill="#F2F2F2"/></svg>