<?xml version="1.0" encoding="UTF-8"?>
<svg version="1.1" xmlns="http://www.w3.org/2000/svg" width="794" height="1123">
<path d="M0 0 C1.52144625 0.76429499 3.03965588 1.53505514 4.55517578 2.31103516 C5.37341827 2.72364594 6.19166077 3.13625671 7.03469849 3.56137085 C8.78467448 4.44441206 10.5333252 5.33008369 12.28076172 6.21813965 C16.84520159 8.53744054 21.41932659 10.83749114 25.99267578 13.13916016 C26.88766785 13.5901709 27.78265991 14.04118164 28.70477295 14.50585938 C35.14107398 17.74457339 41.60768438 20.90317183 48.12548828 23.97509766 C58.02752469 28.64867201 67.81068324 33.54700402 77.5930481 38.46450806 C86.21448476 42.79708879 94.84977858 47.08312175 103.62109375 51.10668945 C108.03632786 53.13593723 108.03632786 53.13593723 109.12548828 54.22509766 C109.22127421 55.74328286 109.24736975 57.26592162 109.2457428 58.78712463 C109.24711746 59.77295532 109.24849213 60.75878601 109.24990845 61.77449036 C109.24631317 62.86493149 109.2427179 63.95537262 109.23901367 65.07885742 C109.2391597 66.2201712 109.23930573 67.36148499 109.23945618 68.53738403 C109.23875646 72.33044296 109.23096135 76.1234535 109.22314453 79.91650391 C109.22128056 82.53824334 109.21985656 85.15998312 109.21885681 87.78172302 C109.21574379 93.99011721 109.2075308 100.19849387 109.19750732 106.40688032 C109.18634527 113.47327207 109.1808355 120.53966464 109.17581189 127.60606301 C109.16534816 142.14575028 109.14774929 156.68542372 109.12548828 171.22509766 C102.99704569 174.30227444 96.86685992 177.37595899 90.7355957 180.44750977 C88.66132408 181.4871197 86.58741537 182.52745415 84.51391602 183.56860352 C72.36981286 189.66572793 60.19439877 195.68198992 47.91758728 201.5080719 C39.7091937 205.40398256 31.58269293 209.45411332 23.46954346 213.54391479 C12.61031423 219.01594275 1.74874113 224.47410891 -9.24951172 229.66259766 C-19.87779952 234.67746709 -30.37197 239.95367297 -40.87451172 245.22509766 C-52.22135007 250.92029081 -63.57517651 256.57749143 -75.05810547 261.99462891 C-85.25414234 266.83140189 -95.31892609 271.93198984 -105.40386963 276.99490356 C-115.54103432 282.08218962 -125.69919181 287.10225376 -135.95654297 291.94384766 C-145.33363462 296.39491287 -154.59850016 301.06828552 -163.87451172 305.72509766 C-174.85413577 311.23716997 -185.84586081 316.69947121 -196.95654297 321.94384766 C-206.33363462 326.39491287 -215.59850016 331.06828552 -224.87451172 335.72509766 C-235.85413577 341.23716997 -246.84586081 346.69947121 -257.95654297 351.94384766 C-267.33363462 356.39491287 -276.59850016 361.06828552 -285.87451172 365.72509766 C-296.85413577 371.23716997 -307.84586081 376.69947121 -318.95654297 381.94384766 C-328.33363472 386.39491292 -337.59849847 391.06828876 -346.87451172 395.72509766 C-356.96054317 400.78854571 -367.04194842 405.84712123 -377.24951172 410.66259766 C-388.77331774 416.10000993 -400.14277003 421.84236939 -411.53015137 427.55804443 C-422.3505478 432.98728118 -433.18839525 438.3566746 -444.13256836 443.53295898 C-454.127324 448.26741701 -464.00213435 453.24156468 -473.87451172 458.22509766 C-454.62886491 468.4971718 -435.15149565 478.28574206 -415.43579102 487.62353516 C-400.81498047 494.58784515 -386.37689631 501.93239207 -371.90600586 509.20141602 C-367.89805443 511.21441576 -363.88658506 513.2203268 -359.87451172 515.22509766 C-359.87451172 515.88509766 -359.87451172 516.54509766 -359.87451172 517.22509766 C-371.36544008 523.02016406 -382.86559977 528.78415609 -394.49951172 534.28759766 C-405.87700859 539.67683158 -417.11900895 545.32935287 -428.3692627 550.9776001 C-440.74124058 557.18674042 -453.13706123 563.33236357 -465.69384766 569.16210938 C-467.16525365 569.87936214 -468.61222241 570.64872192 -470.03173828 571.46386719 C-475.11728111 574.34263482 -475.11728111 574.34263482 -478.71826172 573.78369141 C-479.75982422 573.26935547 -480.80138672 572.75501953 -481.87451172 572.22509766 C-482.96119141 571.73033936 -482.96119141 571.73033936 -484.06982422 571.22558594 C-486.85789976 569.95185406 -489.61593191 568.62400114 -492.37451172 567.28759766 C-493.44040527 566.77398682 -494.50629883 566.26037598 -495.60449219 565.73120117 C-506.62103624 560.39600432 -517.55722925 554.90014309 -528.4967041 549.40914917 C-538.86786538 544.20410638 -549.26354305 539.07098537 -559.75244141 534.10620117 C-567.29620442 530.52664758 -574.77916216 526.82964909 -582.24951172 523.10009766 C-583.96509277 522.24569092 -583.96509277 522.24569092 -585.71533203 521.37402344 C-587.29072754 520.58487549 -587.29072754 520.58487549 -588.89794922 519.77978516 C-590.30439697 519.07571533 -590.30439697 519.07571533 -591.73925781 518.35742188 C-593.87451172 517.22509766 -593.87451172 517.22509766 -594.87451172 516.22509766 C-594.97026481 514.71958592 -594.99639358 513.20958736 -594.99476624 511.70103455 C-594.9961409 510.72361801 -594.99751556 509.74620148 -594.99893188 508.73916626 C-594.99533661 507.65807587 -594.99174133 506.57698547 -594.98803711 505.46313477 C-594.98818314 504.33157455 -594.98832916 503.20001434 -594.98847961 502.03416443 C-594.98777991 498.27357095 -594.97998483 494.51302629 -594.97216797 490.75244141 C-594.97030399 488.15312222 -594.96887999 485.55380269 -594.96788025 482.95448303 C-594.96444512 476.79921189 -594.95655428 470.64396106 -594.94653076 464.48869759 C-594.93536866 457.4827642 -594.92985893 450.47682999 -594.92483532 443.47088993 C-594.91437164 429.05561633 -594.8967728 414.64035762 -594.87451172 400.22509766 C-588.74606913 397.14792088 -582.61588336 394.07423632 -576.48461914 391.00268555 C-574.41034752 389.96307561 -572.33643881 388.92274117 -570.26293945 387.8815918 C-558.11883629 381.78446738 -545.9434222 375.7682054 -533.66661072 369.94212341 C-525.45803218 366.04612496 -517.33135024 361.9958988 -509.21801758 357.90600586 C-497.4657646 351.98396735 -485.69384918 346.12393773 -473.79248047 340.50634766 C-464.41538872 336.0552824 -455.15052497 331.38190656 -445.87451172 326.72509766 C-435.78848027 321.6616496 -425.70707502 316.60307408 -415.49951172 311.78759766 C-404.87122392 306.77272822 -394.37705343 301.49652234 -383.87451172 296.22509766 C-372.52767337 290.5299045 -361.17384693 284.87270389 -349.69091797 279.45556641 C-339.4948811 274.61879342 -329.43009734 269.51820548 -319.34515381 264.45529175 C-309.20798912 259.36800569 -299.04983163 254.34794155 -288.79248047 249.50634766 C-279.41538882 245.05528245 -270.15052328 240.38190979 -260.87451172 235.72509766 C-249.89488767 230.21302534 -238.90316263 224.75072411 -227.79248047 219.50634766 C-218.41538882 215.05528245 -209.15052328 210.38190979 -199.87451172 205.72509766 C-188.89488767 200.21302534 -177.90316263 194.75072411 -166.79248047 189.50634766 C-157.41538882 185.05528245 -148.15052328 180.38190979 -138.87451172 175.72509766 C-127.89488767 170.21302534 -116.90316263 164.75072411 -105.79248047 159.50634766 C-95.56832605 154.65320345 -85.47368187 149.54017581 -75.35980225 144.46261597 C-64.90710445 139.21685298 -54.43112208 134.03965925 -43.85864258 129.03833008 C-33.110643 123.94282545 -22.49455183 118.58096063 -11.87451172 113.22509766 C-23.93625763 106.68313377 -36.19105536 100.59688787 -48.5506897 94.64468384 C-60.30617523 88.98185047 -71.99212296 83.19178861 -83.65026855 77.33145142 C-93.70760799 72.27813559 -103.79973146 67.31968571 -113.98828125 62.53442383 C-118.08039524 60.60535122 -122.05441295 58.66681027 -125.87451172 56.22509766 C-123.15791209 54.08864405 -120.46942971 52.39825361 -117.37915039 50.85595703 C-116.49269333 50.41119019 -115.60623627 49.96642334 -114.69291687 49.50817871 C-113.25720085 48.79570984 -113.25720085 48.79570984 -111.79248047 48.06884766 C-110.28467766 47.31528992 -110.28467766 47.31528992 -108.74641418 46.54650879 C-106.60801071 45.47881838 -104.46863478 44.41307374 -102.32836914 43.34912109 C-99.13773412 41.76274661 -95.95019883 40.17029189 -92.76318359 38.57666016 C-82.61156065 33.51003058 -72.43246863 28.5130077 -62.18310547 23.64697266 C-54.60279541 20.04783652 -47.08788763 16.34248393 -39.61669922 12.52197266 C-38.71379654 12.06185791 -37.81089386 11.60174316 -36.88063049 11.12768555 C-33.22726241 9.2653429 -29.57463955 7.40203587 -25.93261719 5.51757812 C-23.20863757 4.11041727 -20.47621953 2.72101227 -17.74169922 1.33447266 C-16.92095917 0.9044696 -16.10021912 0.47446655 -15.25460815 0.03143311 C-9.04315983 -3.08951619 -6.25050348 -2.92849628 0 0 Z " fill="#FFFFFF" transform="translate(638.87451171875,272.77490234375)"/>
<path d="M0 0 C1.16281494 0.58982666 2.32562988 1.17965332 3.52368164 1.78735352 C4.48175468 2.27056313 4.48175468 2.27056313 5.45918274 2.76353455 C6.82555283 3.45290555 8.1910659 4.14397746 9.55578613 4.83660889 C13.18102755 6.67584756 16.81316671 8.50134553 20.44555664 10.32641602 C21.16784454 10.68952881 21.89013245 11.0526416 22.63430786 11.42675781 C28.38606519 14.3122059 34.17690031 17.10730687 39.99633789 19.85375977 C49.98921379 24.5786472 59.86886168 29.51873236 69.74633789 34.47875977 C80.45220686 39.85475482 91.17626682 45.16832988 102.00805664 50.28735352 C111.40527233 54.74934082 120.68924228 59.43404759 129.98468018 64.10305786 C138.70017379 68.47895846 147.42934123 72.80978337 156.24633789 76.97875977 C165.81825131 81.50468652 175.28544336 86.2266422 184.74633789 90.97875977 C195.02488186 96.1415595 205.3249446 101.23434544 215.72631836 106.14648438 C226.79865502 111.40470271 237.73199912 116.94684113 248.67749023 122.46289062 C249.43797668 122.84524872 250.19846313 123.22760681 250.98199463 123.62155151 C252.41498002 124.34212115 253.84712233 125.06437082 255.27825928 125.78860474 C258.71512925 127.51570545 262.14706997 129.11939263 265.74633789 130.47875977 C265.74633789 131.13875977 265.74633789 131.79875977 265.74633789 132.47875977 C254.25540953 138.27382617 242.75524984 144.0378182 231.12133789 149.54125977 C219.74384102 154.93049369 208.50184066 160.58301498 197.25158691 166.23126221 C184.87858143 172.44091826 172.47648995 178.57196863 159.92700195 184.41967773 C158.46001204 185.13215 157.01328501 185.88776279 155.58911133 186.68237305 C154.90623047 187.05990723 154.22334961 187.43744141 153.51977539 187.82641602 C152.93373535 188.16809814 152.34769531 188.50978027 151.74389648 188.86181641 C145.49837048 190.79073894 139.29499725 186.50177618 133.90649414 183.73657227 C132.94851425 183.25356659 131.99053436 182.77056091 131.00352478 182.2729187 C127.9347474 180.72406909 124.87158798 179.16448908 121.80883789 177.60375977 C117.82240474 175.58186731 113.83366273 173.564572 109.84399414 171.54907227 C108.84558502 171.04398132 107.8471759 170.53889038 106.81851196 170.01849365 C98.94578832 166.04921427 91.00891131 162.22712866 83.04518127 158.44448853 C74.66826625 154.46003109 66.36848135 150.33290113 58.08544922 146.1574707 C46.85313853 140.49735213 35.61055652 134.87012312 24.24633789 129.47875977 C13.34429972 124.28731302 2.54654365 118.87886265 -8.25366211 113.47875977 C-8.25366211 163.96875977 -8.25366211 214.45875977 -8.25366211 266.47875977 C-30.44628506 278.15908763 -30.44628506 278.15908763 -39.00366211 282.41625977 C-40.00913086 282.91802734 -41.01459961 283.41979492 -42.05053711 283.93676758 C-49.67117182 287.7256519 -57.34254924 291.40049013 -65.0324707 295.04614258 C-73.62319566 299.13724091 -82.12615543 303.39599328 -90.62866211 307.66625977 C-108.67298991 316.71964314 -108.67298991 316.71964314 -116.56616211 320.47875977 C-117.2285791 320.79868896 -117.89099609 321.11861816 -118.57348633 321.44824219 C-121.34806576 322.75243805 -123.14223823 323.47875977 -126.25366211 323.47875977 C-126.25366211 234.70875977 -126.25366211 145.93875977 -126.25366211 54.47875977 C-104.4517833 43.00408671 -104.4517833 43.00408671 -95.22631836 38.52563477 C-94.1963121 38.02243713 -93.16630585 37.5192395 -92.10508728 37.00079346 C-89.94451235 35.94552069 -87.78334154 34.89146705 -85.62158203 33.83862305 C-79.98695136 31.09434691 -74.35667949 28.34115739 -68.72631836 25.58813477 C-67.63171295 25.05313354 -66.53710754 24.51813232 -65.40933228 23.96691895 C-56.9992985 19.85282328 -48.61805619 15.68467664 -40.25366211 11.47875977 C-38.14712711 10.42620431 -36.04037006 9.37409309 -33.93334961 8.32250977 C-31.07708639 6.89679954 -28.225381 5.46428723 -25.38354492 4.01000977 C-22.72352247 2.64902504 -20.0528233 1.31168793 -17.37866211 -0.02124023 C-16.62842773 -0.4144043 -15.87819336 -0.80756836 -15.10522461 -1.21264648 C-8.92279261 -4.24619054 -5.97587273 -2.79400187 0 0 Z " fill="#FFFFFF" transform="translate(170.253662109375,273.521240234375)"/>
<path d="M0 0 C0.1320135 26.95223763 0.26245713 53.90448249 0.39115143 80.85673618 C0.45097324 93.37788302 0.51126346 105.89902725 0.57275391 118.42016602 C0.62649767 129.36413277 0.67926346 140.30810379 0.73096704 151.25208038 C0.75824354 157.01903024 0.78593294 162.78597728 0.81480408 168.55291939 C0.98199876 202.0354807 1.02837691 235.51703529 1 269 C-2.04429142 270.60482718 -5.08900351 272.20885467 -8.13378906 273.81274414 C-8.99090485 274.26459328 -9.84802063 274.71644241 -10.73110962 275.18198395 C-16.70699887 278.32920546 -22.70210176 281.430553 -28.75 284.4375 C-29.66587891 284.89447266 -30.58175781 285.35144531 -31.52539062 285.82226562 C-38.72748492 289.40122046 -45.98343524 292.85996279 -53.25097656 296.3034668 C-64.69808743 301.75959305 -76.01402627 307.48113109 -87.33789062 313.1875 C-91.15573757 315.11032268 -94.98281827 317.01375907 -98.81445312 318.90893555 C-100.97961007 319.98982098 -103.1303654 321.09612135 -105.28125 322.20507812 C-106.61410058 322.87205933 -107.94741019 323.53812429 -109.28125 324.203125 C-110.43689453 324.79254883 -111.59253906 325.38197266 -112.78320312 325.98925781 C-119.51285417 328.10376565 -126.33007589 323.00577156 -132.3359375 320.0390625 C-133.85905045 319.29203064 -133.85905045 319.29203064 -135.41293335 318.52990723 C-138.73553564 316.89879953 -142.05531174 315.26202922 -145.375 313.625 C-147.67991948 312.49183445 -149.98493337 311.35886092 -152.29003906 310.22607422 C-168.00991835 302.49342605 -183.69816086 294.69782222 -199.34130859 286.81103516 C-207.54337342 282.6825091 -215.78489658 278.65342581 -224.078125 274.7109375 C-237.54038307 268.30744909 -250.85011932 261.60781318 -264.16601562 254.90673828 C-276.19295847 248.85798089 -288.24876232 242.89315485 -300.40893555 237.11657715 C-312.37013081 231.41991568 -324.18738704 225.43622321 -336.02050781 219.47949219 C-348.01296318 213.44640643 -360.03380357 207.4914944 -372.16430664 201.73999023 C-378.14825046 198.90140371 -384.0876156 195.98483902 -390 193 C-389 190 -389 190 -387.33287048 188.88478088 C-386.60805984 188.53680954 -385.88324921 188.1888382 -385.13647461 187.83032227 C-384.31222488 187.42839661 -383.48797516 187.02647095 -382.63874817 186.61236572 C-381.73573471 186.1846991 -380.83272125 185.75703247 -379.90234375 185.31640625 C-378.969561 184.86465027 -378.03677826 184.41289429 -377.07572937 183.94744873 C-374.03400556 182.47657834 -370.98582021 181.01964313 -367.9375 179.5625 C-365.85215934 178.55670666 -363.7673609 177.54978833 -361.68310547 176.54174805 C-358.59448242 175.04812558 -355.50555053 173.55519491 -352.41473389 172.06611633 C-345.11615526 168.54936734 -337.85560014 164.96725118 -330.625 161.3125 C-322.3146013 157.12596431 -313.95056128 153.06622527 -305.53369141 149.09790039 C-300.60877774 146.76663828 -295.73889521 144.36472148 -290.9140625 141.83203125 C-289.92229004 141.31648682 -288.93051758 140.80094238 -287.90869141 140.26977539 C-286.02007211 139.28298211 -284.13895978 138.28163535 -282.26708984 137.26342773 C-281.4158252 136.82071533 -280.56456055 136.37800293 -279.6875 135.921875 C-278.94886719 135.52581055 -278.21023438 135.12974609 -277.44921875 134.72167969 C-271.98792214 133.11246988 -266.93646641 135.22081222 -262.0625 137.69287109 C-260.93602051 138.25791351 -259.80954102 138.82295593 -258.64892578 139.40512085 C-257.43255336 140.02776839 -256.2162466 140.65054422 -255 141.2734375 C-253.72036589 141.91920896 -252.44024472 142.56401608 -251.15966797 143.20791626 C-247.78409159 144.90805598 -244.41449533 146.61971322 -241.04626465 148.33435059 C-235.71698163 151.04461353 -230.37810431 153.73595003 -225.04052734 156.42982864 C-223.21688066 157.35197697 -221.39548775 158.27857836 -219.57421875 159.20541382 C-208.13453484 165.00405631 -196.58275483 170.46042161 -185 176 C-163.22 186.89 -141.44 197.78 -119 209 C-118.67 158.84 -118.34 108.68 -118 57 C-100.51 48.42 -83.02 39.84 -65 31 C-53.92209895 25.46242444 -53.92209895 25.46242444 -42.8515625 19.91015625 C-35.82346129 16.39610564 -28.73563448 13.00929919 -21.63647461 9.64160156 C-15.71029505 6.82982871 -9.83595135 3.94417917 -4.01171875 0.92578125 C-2 0 -2 0 0 0 Z " fill="#FFFFFF" transform="translate(747,520)"/>
<path d="M0 0 C1.05654785 0.51151611 2.1130957 1.02303223 3.20166016 1.55004883 C4.36101074 2.11618896 5.52036133 2.6823291 6.71484375 3.265625 C7.97171624 3.87615507 9.22871953 4.48641593 10.48583984 5.09643555 C14.87775146 7.22987125 19.26523024 9.37234384 23.65234375 11.515625 C24.49452454 11.92693665 25.33670532 12.33824829 26.20440674 12.76202393 C34.68770576 16.90540336 43.16956908 21.05171505 51.6496582 25.20166016 C63.22515853 30.86606774 74.80758723 36.51574093 86.40234375 42.140625 C99.68110706 48.58273526 112.95038626 55.04410748 126.21484375 61.515625 C127.58606384 62.1845578 127.58606384 62.1845578 128.98498535 62.86700439 C131.56298517 64.12471761 134.1408947 65.38261561 136.71875 66.640625 C137.88166313 67.20805923 137.88166313 67.20805923 139.06806946 67.78695679 C144.4157495 70.39732788 144.4157495 70.39732788 146.65234375 71.515625 C146.65234375 72.175625 146.65234375 72.835625 146.65234375 73.515625 C118.20823458 87.83215414 118.20823458 87.83215414 105.65234375 93.765625 C96.08598876 98.2903351 86.62185364 103.00855318 77.16430664 107.75506592 C52.94198749 119.91036666 52.94198749 119.91036666 42.15234375 125.140625 C41.25257813 125.58341797 40.3528125 126.02621094 39.42578125 126.48242188 C38.60335937 126.87751953 37.7809375 127.27261719 36.93359375 127.6796875 C36.24330078 128.01436035 35.55300781 128.3490332 34.84179688 128.69384766 C28.30741111 131.14642822 28.30741111 131.14642822 24.87261963 129.83731079 C22.82806156 128.75120745 20.86475743 127.57506261 18.89453125 126.359375 C17.37915604 125.48150682 15.860641 124.60904075 14.33935547 123.74145508 C13.5530072 123.29186432 12.76665894 122.84227356 11.95648193 122.37905884 C-1.03018507 114.40368387 -1.03018507 114.40368387 -15.53515625 113.00390625 C-19.82143883 114.68344582 -23.48521063 117.13502373 -27.13867188 119.91162109 C-30.90703961 122.64793586 -35.05711199 124.5866333 -39.22265625 126.640625 C-39.95500488 127.04128174 -40.68735352 127.44193848 -41.44189453 127.85473633 C-42.47419189 128.40230591 -42.47419189 128.40230591 -43.52734375 128.9609375 C-44.42042236 129.44844482 -44.42042236 129.44844482 -45.33154297 129.94580078 C-50.67547092 131.45618197 -55.62542552 128.67677431 -60.32421875 126.33203125 C-60.99470245 126.00505753 -61.66518616 125.6780838 -62.35598755 125.34120178 C-64.56536373 124.26111249 -66.76897628 123.16978304 -68.97265625 122.078125 C-70.52870129 121.31439093 -72.08502139 120.55121704 -73.64160156 119.78857422 C-86.35377759 113.54815748 -99.01276192 107.19992402 -111.66845703 100.84594727 C-120.91388877 96.20774955 -130.19761727 91.66526347 -139.54614258 87.23754883 C-148.88595114 82.80847799 -158.12080978 78.17452557 -167.34765625 73.515625 C-165.02971565 70.93261577 -162.71473256 69.51791646 -159.61328125 67.984375 C-158.18314697 67.27269165 -158.18314697 67.27269165 -156.72412109 66.54663086 C-155.176521 65.78878296 -155.176521 65.78878296 -153.59765625 65.015625 C-152.51564941 64.4801001 -151.43364258 63.9445752 -150.31884766 63.39282227 C-142.57456799 59.57254397 -134.78490436 55.85169643 -126.98144531 52.15429688 C-117.36996032 47.57495254 -107.86206638 42.79223214 -98.34765625 38.015625 C-87.33158002 32.48520082 -76.30410356 27.00225569 -65.15576172 21.74194336 C-54.27058188 16.57830735 -43.52499998 11.12921761 -32.76708984 5.70678711 C-29.22691762 3.92326364 -25.67839295 2.15744772 -22.12414551 0.40216064 C-20.57078067 -0.37302743 -19.02984294 -1.17301693 -17.49121094 -1.97705078 C-16.71938477 -2.36231934 -15.94755859 -2.74758789 -15.15234375 -3.14453125 C-14.23557861 -3.62031616 -14.23557861 -3.62031616 -13.30029297 -4.10571289 C-8.73936207 -4.99018449 -4.01770706 -1.95274635 0 0 Z " fill="#FFFFFF" transform="translate(406.34765625,159.484375)"/>
<path d="M0 0 C1.31572202 0.67584586 2.63147828 1.35162507 3.94726562 2.02734375 C5.99368404 3.09092181 8.03828241 4.15788561 10.08178711 5.22705078 C12.07103294 6.26414827 14.06639159 7.2886892 16.0625 8.3125 C16.66376205 8.63230835 17.26502411 8.9521167 17.88450623 9.28161621 C22.39855004 11.59028411 26.93584841 13.63079551 32.01332092 12.0657959 C34.14332421 11.13510874 36.17701808 10.0964054 38.2265625 9 C38.9792894 8.61888062 39.7320163 8.23776123 40.5075531 7.84509277 C42.90083199 6.63232561 45.28133182 5.39710342 47.66015625 4.15625 C50.04286087 2.91613592 52.42764017 1.68198726 54.82347107 0.46740723 C56.31045032 -0.28643569 57.79016951 -1.05482454 59.26112366 -1.83947754 C63.61567153 -4.04769985 66.24295741 -4.87823421 71.09765625 -3.34375 C73.24549414 -2.42312604 75.35801235 -1.41762404 77.4375 -0.3515625 C78.03173264 -0.05024918 78.62596527 0.25106415 79.23820496 0.56150818 C80.51125226 1.20792807 81.78249608 1.85791003 83.05206299 2.51113892 C86.4405057 4.25416736 89.84232534 5.97079101 93.2421875 7.69140625 C93.92186584 8.036306 94.60154419 8.38120575 95.30181885 8.73655701 C100.89964179 11.57218371 106.54637352 14.2936536 112.22265625 16.96875 C123.83389195 22.46053641 135.3005163 28.23543363 146.77319336 34.00927734 C156.65828303 38.97726571 166.58216358 43.83210973 176.66210938 48.39648438 C177.51095703 48.79029297 178.35980469 49.18410156 179.234375 49.58984375 C179.96358154 49.92040771 180.69278809 50.25097168 181.4440918 50.59155273 C183.09765625 51.65625 183.09765625 51.65625 184.09765625 54.65625 C173.31553986 60.09901526 162.51529245 65.48991338 151.59765625 70.65625 C141.01972342 75.6691119 130.55843311 80.9045172 120.09765625 86.15625 C109.12687892 91.66391974 98.14500403 97.12426649 87.04199219 102.36181641 C75.73694586 107.72584039 64.5785071 113.39141441 53.40429688 119.02148438 C49.63252715 120.9203614 45.85459198 122.80624627 42.06958008 124.67858887 C40.27273315 125.56944853 38.48081421 126.47023036 36.68945312 127.37207031 C35.72587891 127.83967773 34.76230469 128.30728516 33.76953125 128.7890625 C32.9712793 129.1823877 32.17302734 129.57571289 31.35058594 129.98095703 C26.82637182 131.33704462 22.97051171 129.2772352 18.93798828 127.23876953 C17.93148224 126.73378937 16.9249762 126.2288092 15.88796997 125.70852661 C14.80474457 125.15760345 13.72151917 124.6066803 12.60546875 124.0390625 C10.86609442 123.16431422 9.12671887 122.28956835 7.38728142 121.4149456 C4.94387573 120.18447864 2.50326204 118.94852682 0.06262207 117.71258545 C-5.2941719 115.00113719 -10.65670341 112.30105191 -16.01953125 109.6015625 C-17.19312195 109.01042664 -18.36671265 108.41929077 -19.5758667 107.8102417 C-27.93960052 103.60974361 -36.35599403 99.53343968 -44.8107605 95.51992798 C-53.12000466 91.57092138 -61.35026562 87.4751593 -69.56515503 83.33413696 C-81.83299133 77.15144221 -94.12872617 71.05540571 -106.55102539 65.18823242 C-114.13683706 61.5888091 -121.55035921 57.70971383 -128.90234375 53.65625 C-125.83961633 51.20643208 -122.70298532 49.43417101 -119.1953125 47.6875 C-118.06432129 47.12264893 -116.93333008 46.55779785 -115.76806641 45.97583008 C-114.54208707 45.36911162 -113.31601025 44.76259012 -112.08984375 44.15625 C-110.81161226 43.52057509 -109.53345566 42.88474955 -108.25537109 42.2487793 C-99.9883651 38.14358797 -91.67561444 34.14217268 -83.33276367 30.19335938 C-74.63290214 26.05247778 -66.02316764 21.73706674 -57.41229248 17.41525269 C-52.49869525 14.95056804 -47.58088423 12.49429915 -42.66317749 10.03782654 C-39.12008105 8.26748026 -35.57836188 6.49467159 -32.04296875 4.70898438 C-28.83655343 3.09319549 -25.62143733 1.49658469 -22.40234375 -0.09375 C-21.50257813 -0.55330078 -20.6028125 -1.01285156 -19.67578125 -1.48632812 C-18.85335937 -1.88787109 -18.0309375 -2.28941406 -17.18359375 -2.703125 C-16.49330078 -3.04827148 -15.80300781 -3.39341797 -15.09179688 -3.74902344 C-9.56146945 -5.25123994 -4.79206652 -2.54032442 0 0 Z " fill="#FFFFFF" transform="translate(367.90234375,831.34375)"/>
</svg>
